<?xml version="1.0" standalone="no"?>
<!DOCTYPE svg PUBLIC "-//W3C//DTD SVG 20010904//EN"
 "http://www.w3.org/TR/2001/REC-SVG-20010904/DTD/svg10.dtd">
<svg version="1.0" xmlns="http://www.w3.org/2000/svg"
 width="1600.000000pt" height="1600.000000pt" viewBox="0 0 1600.000000 1600.000000"
 preserveAspectRatio="xMidYMid meet">

<g transform="translate(0.000000,1600.000000) scale(0.100000,-0.100000)"
fill="#000000" stroke="none">
<path d="M8490 11550 c1 -8 7 -42 15 -75 l15 -60 -6 65 c-3 36 -10 69 -15 75
-6 5 -9 4 -9 -5z"/>
<path d="M8511 11315 c-1 -30 -32 -98 -54 -119 -91 -89 -180 -111 -592 -152
-223 -22 -367 -44 -525 -80 -246 -57 -482 -171 -580 -281 -16 -17 -7 -12 25
14 146 118 306 189 570 252 157 38 326 61 658 92 139 12 297 49 366 83 82 42
150 139 138 198 -3 18 -5 17 -6 -7z"/>
<path d="M6711 10626 c-13 -14 -22 -29 -20 -34 2 -5 14 6 26 24 26 40 25 43
-6 10z"/>
<path d="M6653 10523 c-10 -24 -10 -119 0 -171 5 -31 4 -44 -5 -46 -262 -80
-378 -126 -444 -175 -12 -9 -32 -23 -44 -31 -59 -38 -152 -128 -199 -190 -14
-19 -29 -37 -32 -40 -16 -12 -84 -150 -99 -200 l-16 -55 -86 -7 c-157 -12
-252 -41 -310 -96 -94 -88 52 -195 282 -209 102 -6 130 -15 130 -39 0 -26 61
-156 101 -215 89 -132 241 -266 397 -350 l92 -50 0 -433 c0 -323 -3 -435 -12
-444 -7 -7 -41 -12 -82 -12 -38 0 -67 -3 -63 -6 9 -9 887 -10 887 -2 0 5 -42
8 -93 8 -59 0 -97 4 -105 12 -14 14 -18 673 -4 681 4 3 70 -5 147 -18 119 -20
240 -36 530 -71 64 -8 87 -12 92 -18 2 -2 9 -35 14 -72 37 -270 186 -441 448
-518 88 -26 302 -39 423 -27 174 17 274 60 367 156 35 36 69 65 76 65 8 0 49
-13 92 -30 42 -16 80 -30 83 -29 9 1 -135 68 -147 69 -17 0 -16 40 2 83 18 43
18 47 5 47 -5 0 -21 -22 -35 -50 -14 -27 -30 -50 -36 -50 -6 0 -31 9 -57 19
-188 78 -611 217 -635 208 -6 -2 15 -12 48 -22 75 -22 353 -114 460 -153 166
-61 181 -72 149 -114 -84 -111 -282 -177 -444 -148 -115 21 -186 86 -229 210
-26 76 -40 213 -22 224 8 5 7 12 -4 22 -15 16 -22 144 -9 178 5 14 51 16 415
16 348 0 410 2 415 14 3 8 -1 61 -9 117 -40 273 -196 403 -527 440 -136 15
-284 -3 -428 -54 -100 -35 -172 -80 -247 -154 -93 -91 -142 -203 -160 -365 -7
-66 -8 -67 -120 -48 -33 6 -116 17 -185 25 -189 23 -453 66 -467 77 -17 14
-16 79 2 156 40 169 161 302 276 302 84 0 117 -36 100 -112 -11 -48 -23 -58
-73 -58 -56 0 -71 -21 -66 -97 5 -77 26 -109 94 -143 39 -20 63 -25 119 -24
117 1 192 49 224 143 18 54 13 160 -9 208 -57 127 -234 180 -410 123 -81 -26
-172 -101 -211 -174 -23 -44 -45 -63 -58 -50 -3 3 -5 51 -3 107 2 74 -1 103
-10 109 -19 11 -645 10 -653 -2 -3 -5 24 -10 67 -12 l73 -3 3 -137 c2 -120 0
-138 -13 -138 -20 0 -86 33 -135 68 -21 15 -48 34 -60 42 -154 102 -304 288
-355 439 -21 64 -15 71 60 71 28 0 257 7 510 15 253 8 629 19 835 25 206 5
564 17 795 25 231 8 627 19 880 25 253 6 584 15 735 20 151 5 451 14 665 20
215 5 435 12 490 15 55 2 163 5 240 6 l140 2 -160 8 c-88 4 -437 13 -775 19
-338 6 -617 13 -621 15 -3 3 -186 9 -405 14 -219 6 -462 13 -539 16 -77 3
-367 12 -645 20 -278 8 -642 19 -810 25 -168 5 -519 15 -780 21 -261 6 -509
14 -550 18 l-75 6 3 35 c3 40 68 181 108 238 51 70 177 183 263 235 114 70
212 110 361 148 50 12 104 11 119 -3 8 -7 11 -8 8 -2 -13 23 20 45 90 59 117
24 343 47 408 40 109 -11 209 -25 255 -37 68 -17 227 -95 267 -131 49 -44 74
-100 62 -141 -21 -76 -112 -110 -299 -109 -280 1 -548 96 -732 261 -58 53 -51
27 9 -29 113 -108 287 -188 513 -235 78 -16 329 -18 385 -3 58 16 123 59 136
91 38 92 -87 222 -280 292 -203 73 -533 75 -779 5 -66 -18 -77 -2 -77 116 0
52 -1 95 -3 95 -1 0 -6 -8 -9 -17z m-388 -1006 c74 -18 95 -26 118 -45 42 -37
5 -72 -103 -98 -68 -16 -384 -29 -425 -16 -30 8 -30 9 -33 87 -2 56 1 81 10
87 20 14 363 1 433 -15z m-467 -66 c2 -41 -1 -78 -7 -84 -14 -14 -186 21 -216
45 -32 25 -33 63 -2 80 37 20 119 37 172 35 l50 -2 3 -74z m2731 -488 c55 -41
64 -79 69 -295 l5 -198 -29 -11 c-38 -14 -296 -2 -306 14 -11 17 -9 208 2 295
10 79 40 156 68 179 57 46 140 53 191 16z"/>
<path d="M4440 9701 c0 -6 35 -11 78 -13 l77 -3 3 -950 c3 -1087 14 -975 -102
-975 -38 0 -66 -3 -63 -7 4 -3 187 -6 407 -6 220 0 403 3 407 6 3 4 -19 7 -50
7 -92 0 -87 -21 -87 388 0 494 8 547 101 670 69 91 177 120 239 65 26 -23 33
-39 40 -93 12 -82 13 -990 1 -1009 -5 -7 -32 -16 -60 -19 -29 -2 -50 -7 -47
-9 7 -8 795 -7 802 0 4 4 -26 7 -67 7 -41 0 -81 5 -89 10 -13 8 -16 76 -20
477 -6 447 -7 471 -27 525 -58 156 -199 233 -418 232 -106 -1 -164 -12 -232
-46 -51 -25 -126 -99 -157 -154 -14 -25 -29 -39 -41 -39 -20 0 -20 11 -25 470
l-5 470 -332 3 c-211 1 -333 -1 -333 -7z"/>
<path d="M11640 9700 c0 -5 39 -11 88 -12 l87 -3 0 -394 c0 -269 -3 -395 -11
-398 -5 -2 -30 12 -55 32 -69 53 -118 67 -257 73 -148 5 -221 -7 -317 -54
-153 -74 -233 -196 -270 -408 -33 -195 -5 -428 70 -574 34 -65 124 -150 199
-187 164 -81 442 -59 549 43 47 45 54 69 10 33 -78 -62 -205 -58 -250 8 -46
68 -56 159 -56 496 0 400 17 512 89 575 36 31 80 38 152 24 44 -9 105 -65 133
-121 l24 -48 0 -400 c0 -392 0 -401 -22 -447 -21 -45 -21 -47 -3 -36 26 17 34
6 49 -72 7 -36 16 -68 19 -71 11 -11 611 -18 617 -8 4 5 -22 9 -59 9 -36 0
-68 4 -71 10 -3 5 -8 438 -11 962 -3 524 -7 959 -9 966 -5 15 -695 18 -695 2z"/>
<path d="M2527 9573 c-3 -5 -10 -134 -17 -288 -6 -154 -13 -287 -15 -295 -5
-15 11 -48 18 -40 3 3 29 66 59 141 135 338 256 459 459 459 47 0 60 -4 69
-19 7 -13 10 -303 10 -871 0 -568 -3 -858 -10 -871 -10 -17 -22 -19 -125 -19
-65 0 -116 -4 -120 -10 -3 -5 0 -10 7 -10 7 1 244 -1 526 -3 423 -3 512 -1
512 10 0 10 -25 13 -113 13 -75 0 -117 4 -125 12 -15 15 -17 1734 -3 1757 7
11 27 13 91 8 88 -6 159 -33 216 -85 61 -53 174 -253 214 -377 26 -80 61 -148
71 -138 12 12 -10 603 -24 621 -7 9 -190 12 -853 12 -463 0 -845 -3 -847 -7z"/>
<path d="M9890 9000 c0 -6 9 -10 20 -10 59 0 93 -59 109 -190 13 -98 13 -787
1 -850 -5 -28 -5 -46 1 -49 6 -1 14 -8 19 -15 84 -107 141 -139 285 -156 97
-12 195 -8 266 11 53 13 122 63 146 106 24 42 67 206 60 226 -2 6 -8 -1 -11
-18 -39 -173 -69 -225 -133 -225 -19 0 -43 5 -55 11 -43 23 -48 60 -48 376 0
164 -5 337 -10 383 -32 263 -120 353 -380 389 -115 16 -270 22 -270 11z"/>
<path d="M13005 8993 c-166 -35 -293 -139 -340 -278 -24 -69 -25 -205 -2 -272
48 -139 188 -219 529 -303 90 -22 188 -52 218 -68 96 -49 123 -122 78 -212
-19 -36 -34 -51 -83 -75 -58 -29 -64 -30 -200 -30 -153 0 -202 10 -299 58
-108 53 -157 114 -247 312 -13 27 -14 8 -17 -179 -1 -115 0 -211 3 -215 3 -3
23 13 44 36 53 59 86 62 187 19 116 -49 180 -61 334 -60 99 0 151 5 195 18
213 64 325 207 325 416 -1 243 -129 352 -530 450 -197 48 -247 67 -291 112
-34 35 -39 46 -39 87 0 65 34 111 102 141 106 47 308 36 423 -23 57 -29 175
-152 210 -219 16 -32 31 -55 34 -53 7 8 7 345 -1 345 -4 0 -15 -13 -24 -30
-22 -36 -62 -54 -106 -47 -18 3 -71 19 -118 35 -145 53 -257 63 -385 35z"/>
<path d="M9668 8980 c-162 -34 -268 -99 -304 -186 -8 -19 -14 -63 -14 -100 0
-133 74 -199 220 -198 90 1 140 16 186 57 46 40 64 76 64 131 0 64 -14 96 -43
96 -47 0 -62 22 -62 94 0 77 11 93 82 112 l48 13 -45 -1 c-25 0 -84 -8 -132
-18z"/>
<path d="M9770 8333 c-92 -6 -250 -33 -314 -54 -77 -26 -118 -57 -153 -117
-26 -44 -28 -54 -28 -162 l0 -115 -25 2 c-18 2 -11 -5 25 -24 28 -14 63 -36
78 -49 34 -29 95 -56 174 -79 32 -9 82 -30 111 -46 l53 -30 -17 26 c-20 30
-20 30 95 45 88 12 143 33 175 69 23 25 20 26 -28 6 -32 -14 -40 -14 -65 -1
-45 24 -56 65 -56 216 0 204 27 263 137 301 l53 18 -80 -2 c-44 0 -105 -2
-135 -4z"/>
<path d="M9775 7614 c44 -26 98 -57 120 -69 178 -99 500 -304 640 -409 179
-134 306 -240 303 -256 -3 -13 -40 -15 -281 -18 -173 -1 -277 -6 -277 -12 0
-6 32 -10 74 -10 58 0 75 -3 80 -16 10 -26 7 -1078 -4 -1094 -6 -10 -33 -17
-82 -21 -40 -3 98 -6 308 -7 210 -1 409 -5 443 -8 42 -5 61 -3 61 4 0 7 -35
12 -97 14 l-98 3 0 415 0 416 35 69 c24 48 41 71 55 73 27 4 122 -95 156 -162
15 -30 39 -60 60 -73 19 -12 49 -34 67 -49 29 -24 34 -25 45 -11 7 10 40 21
82 27 133 21 190 86 190 220 0 83 -13 116 -66 168 -59 57 -91 67 -224 67 -114
0 -123 -2 -185 -31 -36 -17 -80 -46 -99 -63 -19 -17 -40 -31 -46 -31 -21 0
-75 62 -75 86 0 18 -6 24 -22 24 -30 1 -57 17 -105 60 -21 19 -56 49 -78 65
-21 17 -75 58 -120 93 -108 84 -350 249 -515 351 -74 46 -151 94 -170 106 -19
12 -62 34 -95 50 -33 15 -77 39 -97 51 -21 13 -43 24 -50 24 -7 0 23 -21 67
-46z m1546 -813 c28 -23 31 -76 6 -115 -14 -21 -25 -26 -61 -26 -36 0 -47 -5
-60 -25 -9 -14 -21 -25 -26 -25 -13 0 -110 95 -110 108 0 19 44 62 85 82 53
26 135 26 166 1z m-303 -77 c3 -24 -35 -87 -48 -79 -11 7 -14 108 -3 118 10
11 48 -18 51 -39z"/>
<path d="M4576 7590 c-125 -25 -151 -33 -253 -82 -136 -66 -241 -176 -285
-296 -29 -81 -29 -243 1 -327 34 -95 97 -189 187 -280 80 -80 99 -112 72 -119
-70 -18 -263 -84 -299 -102 -75 -37 -154 -117 -191 -192 -30 -60 -33 -77 -36
-173 -6 -168 33 -269 145 -368 64 -58 142 -97 274 -139 176 -56 359 -76 640
-69 180 4 215 8 297 31 123 34 242 92 330 160 40 31 80 56 90 56 20 0 61 -48
115 -135 61 -98 79 -157 84 -275 6 -120 -5 -193 -44 -300 -23 -62 -40 -87 -93
-141 -54 -56 -74 -69 -120 -82 -88 -24 -123 -28 -174 -18 -85 16 -125 64 -112
134 10 51 19 58 82 64 32 3 62 11 66 17 14 20 9 136 -7 166 -62 120 -299 148
-432 51 -54 -39 -93 -118 -93 -187 0 -116 72 -198 222 -251 62 -22 95 -26 225
-30 146 -5 157 -4 240 22 227 70 402 201 533 397 90 133 130 261 130 413 0
211 -60 346 -240 539 -70 74 -71 76 -46 191 8 39 20 126 26 195 6 69 15 148
18 175 l7 50 123 5 c71 3 122 9 122 15 0 6 -108 11 -300 13 -262 2 -300 0
-300 -13 0 -13 21 -15 134 -15 106 0 136 -3 146 -15 14 -16 3 -158 -25 -324
-21 -124 -24 -131 -41 -131 -9 0 -57 28 -107 63 -135 93 -371 233 -542 322
-82 43 -158 83 -167 89 -39 24 -19 41 105 90 210 82 333 170 399 285 31 52 33
62 33 151 0 115 -15 151 -93 228 -54 53 -141 101 -217 120 -115 29 -166 35
-340 38 -157 3 -207 0 -289 -16z m389 -39 c59 -26 98 -61 130 -116 38 -65 48
-137 43 -296 -6 -156 -16 -202 -65 -271 -32 -47 -136 -118 -172 -118 -28 0
-81 30 -188 106 -204 145 -262 248 -251 441 9 143 79 226 231 268 74 21 208
14 272 -14z m-502 -1135 c85 -56 291 -182 362 -221 22 -12 67 -37 100 -55 188
-102 392 -233 503 -323 79 -64 80 -80 8 -142 -67 -58 -142 -104 -226 -137
-117 -46 -164 -53 -345 -53 -190 1 -243 11 -350 70 -113 63 -182 166 -210 313
-28 144 -14 479 24 575 15 39 40 35 134 -27z"/>
<path d="M6245 7410 c3 -5 37 -10 75 -10 38 0 72 -5 75 -10 4 -6 6 -90 6 -188
0 -97 0 -471 -1 -829 l0 -653 -52 -1 c-29 -1 -64 -5 -78 -9 -15 -5 51 -8 158
-9 120 -1 181 2 177 9 -3 6 -37 10 -75 10 -53 0 -69 4 -74 16 -3 9 -6 366 -6
794 0 792 1 823 36 776 15 -21 119 -329 209 -616 161 -517 306 -963 318 -977
7 -10 54 -13 173 -13 l163 0 11 43 c18 66 149 537 165 587 7 25 23 83 35 130
12 47 26 99 31 115 5 17 42 149 81 295 122 458 118 443 146 438 16 -3 17 -61
19 -783 2 -429 -1 -785 -5 -792 -4 -6 -41 -16 -82 -21 -55 -7 39 -10 360 -10
319 -1 430 2 416 10 -11 6 -40 8 -70 4 -28 -3 -58 -1 -66 4 -13 8 -15 112 -18
817 -2 542 0 817 7 836 10 26 13 27 81 27 40 0 70 4 70 10 0 7 -126 9 -372 8
l-373 -3 -18 -55 c-10 -30 -35 -120 -56 -200 -58 -216 -94 -345 -151 -545 -28
-99 -67 -238 -86 -310 -51 -189 -68 -197 -110 -57 -14 48 -32 105 -39 127 -7
22 -28 87 -45 145 -46 152 -96 317 -140 460 -21 69 -57 186 -80 260 -23 74
-46 145 -51 158 l-9 22 -380 0 c-252 0 -379 -3 -375 -10z"/>
<path d="M10184 7106 c-15 -12 -19 -25 -17 -68 2 -52 1 -54 -50 -108 -30 -30
-94 -102 -143 -160 -133 -156 -205 -230 -221 -230 -8 0 -13 6 -10 13 21 51 33
44 -153 94 -48 13 -105 17 -220 18 -142 0 -163 -2 -250 -29 -119 -36 -209 -82
-292 -150 -77 -63 -115 -110 -156 -191 -55 -109 -51 -117 24 -42 128 129 272
210 440 246 236 49 433 32 644 -58 109 -47 187 -99 274 -184 38 -37 71 -65 73
-63 11 10 -41 125 -79 173 -43 56 -165 167 -177 161 -54 -28 -62 -31 -72 -21
-10 10 44 80 175 223 66 72 154 175 186 216 19 25 35 35 69 40 51 8 81 34 81
69 0 54 -78 86 -126 51z"/>
<path d="M9075 6926 c-118 -38 -213 -94 -296 -176 -82 -80 -117 -130 -148
-209 -18 -45 -42 -151 -35 -151 2 0 20 26 40 58 61 95 154 176 264 229 95 46
97 48 129 110 30 56 104 143 123 143 5 0 8 5 8 10 0 13 -4 13 -85 -14z"/>
<path d="M9321 6918 c-42 -21 -151 -121 -151 -139 0 -17 60 -9 78 10 9 10 46
48 81 85 68 69 66 81 -8 44z"/>
<path d="M9527 6919 c-21 -11 -62 -43 -90 -72 l-52 -52 45 -3 c40 -3 47 0 65
25 11 15 39 48 63 72 23 24 42 45 42 47 0 10 -39 1 -73 -17z"/>
<path d="M9651 6825 c-30 -30 -53 -56 -50 -59 2 -2 20 -7 41 -11 35 -7 37 -5
77 49 23 30 41 60 41 66 0 5 -12 10 -27 10 -20 0 -43 -16 -82 -55z"/>
<path d="M12270 6865 c-209 -41 -396 -162 -472 -308 -56 -106 -72 -291 -38
-435 52 -217 180 -343 421 -413 60 -17 110 -22 264 -26 218 -6 303 6 412 58
98 47 207 167 228 252 12 47 -10 29 -40 -33 -59 -123 -178 -208 -326 -231 -93
-14 -204 -7 -261 18 -120 54 -180 205 -182 463 l-1 125 410 5 c226 3 411 7
413 8 7 6 0 106 -13 165 -40 189 -193 320 -416 356 -87 14 -317 12 -399 -4z
m270 -24 c52 -36 62 -77 67 -270 2 -97 1 -181 -4 -188 -5 -7 -63 -13 -160 -17
-150 -6 -152 -6 -164 16 -16 30 -5 263 16 343 21 80 42 107 101 127 55 18 107
14 144 -11z"/>
<path d="M9797 6762 c-20 -21 -37 -43 -37 -49 0 -6 15 -16 33 -23 30 -11 34
-9 65 26 37 43 40 59 13 74 -29 15 -34 13 -74 -28z"/>
<path d="M9991 6634 l-24 -25 44 -37 c58 -48 89 -79 122 -122 36 -47 34 -21
-4 60 -43 92 -82 150 -99 150 -8 0 -26 -12 -39 -26z"/>
<path d="M9419 6414 c-7 -19 -9 -70 -6 -144 6 -124 22 -189 75 -301 33 -68
177 -251 207 -263 15 -5 65 16 65 28 0 12 -197 326 -221 354 -54 61 -34 68 58
20 43 -22 66 -41 76 -62 71 -156 135 -256 161 -256 16 0 76 47 76 60 0 4 -25
25 -56 45 -68 46 -124 94 -124 107 0 19 55 -3 150 -62 52 -32 110 -65 128 -74
22 -12 39 -31 52 -61 28 -65 68 -82 108 -45 55 51 6 139 -68 124 -54 -11 -60
-9 -145 41 -85 50 -115 73 -115 87 0 24 79 -7 161 -64 23 -16 41 -6 73 41 34
48 32 57 -35 147 -51 70 -132 134 -262 207 -142 80 -141 81 -133 -45 3 -57 8
-120 12 -140 6 -34 4 -38 -16 -38 -21 0 -99 40 -133 68 -16 14 -16 17 -2 33
19 20 34 192 18 202 -5 4 -29 9 -51 13 -39 6 -42 5 -53 -22z"/>
<path d="M9213 6405 c-10 -27 5 -255 21 -310 20 -72 69 -169 117 -232 46 -59
187 -192 219 -207 43 -20 31 8 -32 72 -88 89 -140 169 -185 283 -37 93 -37 96
-40 249 l-2 155 -46 3 c-35 2 -47 -1 -52 -13z"/>
<path d="M9030 6365 c-52 -19 -55 -30 -38 -146 24 -167 89 -301 195 -406 55
-55 171 -138 179 -130 3 3 -19 31 -48 62 -139 151 -207 315 -226 549 -4 44
-11 80 -17 81 -5 2 -26 -3 -45 -10z"/>
<path d="M11380 6363 c0 -7 4 -14 9 -17 5 -3 44 -56 88 -118 129 -181 150
-213 173 -254 39 -71 70 -119 70 -109 0 6 -16 36 -35 68 -19 32 -35 60 -35 63
0 11 -138 215 -193 284 -73 93 -77 97 -77 83z"/>
<path d="M8795 6228 c-71 -65 -116 -130 -122 -176 -9 -72 112 -214 249 -291
55 -31 161 -71 223 -85 28 -6 25 -2 -31 51 -145 139 -214 280 -230 471 -5 56
-11 82 -20 82 -7 0 -38 -23 -69 -52z"/>
<path d="M11727 5830 c3 -11 9 -22 13 -25 5 -3 6 4 3 15 -3 11 -9 22 -13 25
-5 3 -6 -4 -3 -15z"/>
<path d="M11751 5785 c1 -19 18 -51 18 -35 0 8 -4 22 -9 30 -5 8 -9 11 -9 5z"/>
<path d="M11782 5720 c0 -8 8 -33 19 -55 10 -22 16 -29 13 -15 -10 38 -32 87
-32 70z"/>
<path d="M11836 5565 c3 -22 12 -53 19 -70 l14 -30 -6 35 c-4 19 -12 51 -20
70 l-13 35 6 -40z"/>
<path d="M11880 5415 c0 -4 7 -53 15 -109 8 -55 16 -114 18 -131 3 -22 4 -17
5 15 2 47 -23 218 -32 228 -3 3 -6 2 -6 -3z"/>
<path d="M6650 5318 c-1 -2 -2 -108 -3 -236 l-2 -232 63 0 c59 0 62 1 52 19
-6 12 -9 102 -7 235 l2 216 -52 0 c-29 0 -53 -1 -53 -2z"/>
<path d="M6854 5305 c53 -20 74 -41 82 -81 9 -47 -14 -85 -64 -111 l-44 -22
35 -6 c46 -9 77 -44 84 -94 7 -52 -12 -98 -51 -122 l-31 -19 26 0 c83 0 179
62 179 115 0 35 -52 90 -100 104 -53 16 -51 37 4 61 65 27 85 79 50 128 -23
33 -62 49 -139 56 l-70 6 39 -15z"/>
<path d="M7212 5312 c-5 -1 32 -64 82 -140 90 -136 91 -137 94 -208 3 -42 -1
-80 -7 -93 -11 -20 -10 -21 56 -21 l68 0 -3 102 c-2 57 -8 105 -13 107 -15 5
-25 19 -82 106 -28 44 -56 95 -63 114 -11 34 -13 35 -68 35 -31 1 -60 0 -64
-2z"/>
<path d="M7647 5314 c-3 -3 -2 -14 0 -25 5 -19 7 -19 24 -3 11 9 19 20 19 23
0 8 -36 12 -43 5z"/>
<path d="M8059 5316 c-3 -3 -1 -41 4 -84 6 -47 6 -141 1 -231 l-9 -151 72 0
71 0 -15 31 c-12 25 -14 63 -11 217 3 103 6 194 9 202 3 12 -8 16 -56 18 -34
2 -63 1 -66 -2z"/>
<path d="M8654 5308 c-7 -12 5 -28 21 -28 18 0 39 -36 143 -243 l88 -176 27
55 c28 57 34 84 17 84 -6 0 -43 66 -83 148 -39 81 -73 149 -75 152 -6 8 -133
16 -138 8z"/>
<path d="M9126 5302 c-3 -5 4 -17 16 -26 20 -18 21 -24 15 -222 l-6 -204 57 0
57 0 0 230 0 230 -67 0 c-37 0 -69 -4 -72 -8z"/>
<path d="M9475 5277 c-29 -29 -35 -42 -35 -76 0 -60 42 -99 163 -151 113 -49
152 -86 143 -134 -4 -16 -14 -39 -24 -50 -17 -19 -17 -19 17 0 60 34 86 98 59
147 -16 31 -67 74 -103 88 -96 37 -172 80 -183 104 -15 33 -15 68 0 83 6 6 9
15 5 18 -3 4 -22 -9 -42 -29z"/>
<path d="M9730 5292 c0 -5 9 -17 20 -27 20 -18 20 -17 20 8 0 20 -5 27 -20 27
-11 0 -20 -4 -20 -8z"/>
<path d="M11923 5075 c0 -38 2 -53 4 -32 2 20 2 52 0 70 -2 17 -4 1 -4 -38z"/>
<path d="M8653 4995 c0 -27 2 -38 4 -22 2 15 2 37 0 50 -2 12 -4 0 -4 -28z"/>
<path d="M11912 4959 c-1 -19 -11 -86 -22 -149 -12 -62 -19 -115 -16 -117 15
-15 51 207 43 268 l-4 34 -1 -36z"/>
<path d="M8480 4949 c0 -21 -57 -78 -86 -85 -40 -10 -10 -21 38 -15 43 6 43 6
50 56 4 27 5 51 2 54 -2 2 -4 -2 -4 -10z"/>
<path d="M9440 4900 c0 -38 2 -40 30 -40 17 0 30 3 30 6 0 4 -13 22 -30 41
l-30 34 0 -41z"/>
<path d="M8643 4879 c-10 -25 -9 -31 3 -36 24 -9 33 9 20 39 l-12 28 -11 -31z"/>
</g>
</svg>
