<svg version="1.1" id="Layer_1" xmlns="http://www.w3.org/2000/svg" xmlns:xlink="http://www.w3.org/1999/xlink" x="0px" y="0px"
	 width="100%" viewBox="0 0 1024 512" enable-background="new 0 0 1024 512" xml:space="preserve">
<path fill="#000000" opacity="1.000000" stroke="none" 
	d="
M703.222839,377.999054 
	C703.232361,382.998322 703.452698,387.510284 703.189514,391.993805 
	C702.937439,396.288666 704.386597,398.126984 708.882751,397.772491 
	C711.304565,397.581543 714.155029,396.767059 716.348328,399.111542 
	C713.276001,401.839691 661.734375,401.715210 658.588013,399.169861 
	C659.052063,397.697296 660.357361,397.655701 661.448853,397.811859 
	C667.153198,398.628082 668.043884,395.520630 667.999756,390.724274 
	C667.829468,372.227692 667.789734,353.726959 668.017273,335.231659 
	C668.079529,330.169128 667.113403,327.098633 661.266052,327.826630 
	C660.124268,327.968781 658.973206,327.483643 658.208435,326.110870 
	C659.229126,323.502533 661.639465,324.091766 663.615967,324.068665 
	C671.280762,323.979004 678.947021,324.033356 686.612610,323.997833 
	C688.237976,323.990295 689.862732,323.829987 692.142761,323.703827 
	C689.718262,319.893799 686.385925,317.966248 683.511780,315.703217 
	C662.096313,298.841064 639.001404,284.406372 614.592834,272.537781 
	C604.537720,267.648529 594.812500,261.666748 583.976746,258.266998 
	C581.221252,257.402466 579.120789,256.846893 576.933960,259.532074 
	C571.498047,266.206787 564.090698,269.615448 555.731323,270.559753 
	C543.923157,271.893524 532.107300,271.987183 520.657776,267.988861 
	C505.409576,262.664032 497.327301,251.489731 494.921844,235.904053 
	C494.489532,233.102982 493.818420,231.310577 490.666016,230.826935 
	C476.213959,228.609634 461.614197,227.514130 447.787537,224.689682 
	C445.944122,225.741776 446.080017,226.994415 446.076660,228.124954 
	C446.043640,239.290176 446.122620,250.456482 445.989136,261.620300 
	C445.943176,265.462128 447.373138,266.971191 451.297913,266.856689 
	C453.882782,266.781250 456.906158,265.700958 459.239319,268.213379 
	C456.103821,270.727600 404.425049,270.647491 401.363190,268.237915 
	C402.555298,266.191833 404.593781,266.804840 406.284698,266.853577 
	C409.760223,266.953796 411.045654,265.298431 411.033783,262.005798 
	C410.977966,246.507812 410.905609,231.008881 411.036346,215.511963 
	C411.066650,211.921768 408.916382,210.659988 406.294739,209.314575 
	C395.262695,203.652969 386.245850,195.677521 379.159821,185.492569 
	C377.235840,182.727173 375.607330,179.790909 374.689240,176.596741 
	C373.346771,171.925934 370.748749,169.905899 365.690704,170.173111 
	C360.506104,170.447037 355.452972,169.107956 350.786346,166.621765 
	C347.872223,165.069244 345.231628,163.166489 345.226868,159.550873 
	C345.221985,155.845627 348.145630,154.130234 350.998779,152.660278 
	C355.356842,150.414963 360.172211,149.076019 364.928833,149.115509 
	C370.354492,149.160538 372.458282,146.906326 374.469299,142.083633 
	C382.852234,121.980392 399.329010,111.437592 419.566681,106.025665 
	C423.945068,104.854797 425.807831,103.728165 425.115875,98.449821 
	C423.860992,88.876953 429.403778,81.870102 436.628204,76.525368 
	C448.388245,67.825073 462.072876,63.647995 476.241791,60.776272 
	C491.291229,57.726089 506.608765,56.864731 521.792725,54.918552 
	C524.912903,54.518623 528.020935,53.809055 531.049011,52.943008 
	C542.364868,49.706627 546.500183,42.581818 544.161865,30.976292 
	C543.698914,28.678473 542.065430,26.324711 543.661133,23.910477 
	C545.338196,23.349609 546.017090,24.330397 546.337280,25.502583 
	C549.784363,38.125832 549.922974,51.945942 531.232239,56.553406 
	C519.187988,59.522434 506.837769,59.769741 494.626343,61.253918 
	C477.022888,63.393448 459.713348,66.664452 444.082642,75.661583 
	C437.013458,79.730637 430.851990,84.766960 428.838043,93.253555 
	C428.460907,94.842751 428.339142,96.561974 428.476562,98.189362 
	C428.761536,101.564354 430.107086,103.200378 434.058563,102.173492 
	C445.760284,99.132538 457.646667,98.015961 469.708282,99.808273 
	C478.034302,101.045502 485.954559,103.405106 493.136108,107.912560 
	C494.120697,108.530540 495.110229,109.185448 495.952759,109.977219 
	C499.280487,113.104485 502.723999,116.444176 501.622009,121.492699 
	C500.473114,126.756172 496.015533,129.026337 491.272247,129.655716 
	C468.112976,132.728683 447.269501,127.793648 430.295502,110.805199 
	C428.473297,108.981430 426.828613,107.737053 424.261902,108.338264 
	C403.922577,113.102318 386.877014,122.356461 377.788940,142.459946 
	C375.306366,147.951538 375.743988,148.652786 381.771912,148.889633 
	C409.406464,149.975372 437.061432,150.318741 464.700806,151.113770 
	C511.486298,152.459518 558.280334,153.601334 605.055176,155.187775 
	C641.851624,156.435791 678.654419,157.001053 715.451965,157.960388 
	C717.828857,158.022369 720.461975,157.335663 722.715393,159.582077 
	C720.368225,161.693192 717.610718,161.121338 715.084167,161.174057 
	C693.430176,161.625870 671.764221,161.707596 650.121948,162.471664 
	C604.838440,164.070404 559.546326,165.258881 514.247925,166.313797 
	C481.277191,167.081619 448.309601,168.088852 415.353790,169.336670 
	C404.196533,169.759109 393.046356,170.093292 381.885162,170.240356 
	C375.884369,170.319427 375.418518,171.148682 377.986420,176.719391 
	C384.566101,190.993164 395.920319,200.324570 410.064484,207.955353 
	C411.631775,203.064087 411.052612,198.644760 410.649506,194.308380 
	C410.444183,192.099380 408.334015,192.366898 406.687622,192.218979 
	C404.829956,192.052078 402.632935,192.834381 401.381439,190.610672 
	C402.584259,188.364838 404.619232,188.968155 406.337158,188.962555 
	C417.169159,188.927216 428.001556,188.950012 438.833557,189.006683 
	C445.462616,189.041367 445.914246,189.534531 445.939209,196.108948 
	C445.945984,197.890137 445.940247,199.671356 445.940247,201.486526 
	C448.356720,201.519501 448.451599,199.852173 449.128784,198.862503 
	C455.846039,189.045746 469.050385,184.851959 480.117615,189.069168 
	C489.945129,192.813980 493.950470,203.501404 489.247681,213.430923 
	C485.636292,221.056061 473.771637,223.866226 465.636078,218.957672 
	C461.527069,216.478516 459.820007,212.654160 460.112488,207.961121 
	C460.290405,205.105988 461.119324,202.752319 464.747375,202.671829 
	C468.057892,202.598373 469.586609,200.307480 469.416290,197.349915 
	C469.241211,194.309647 466.571289,194.085251 464.169983,193.944916 
	C461.231567,193.773163 458.488220,194.404434 456.261871,196.398911 
	C450.151794,201.872711 446.796417,208.724075 446.175049,216.923004 
	C445.940979,220.011368 447.316193,221.315643 450.359039,221.892517 
	C463.629364,224.408478 477.089813,225.508499 490.425446,227.515305 
	C492.717712,227.860260 494.568542,227.433151 494.671997,224.718124 
	C495.596649,200.452560 517.625488,187.686340 542.643188,187.167740 
	C551.513733,186.983841 560.225952,188.657410 568.231628,192.913803 
	C578.198181,198.212723 585.060852,210.972824 584.129272,222.129150 
	C583.809326,225.960205 581.303711,226.116913 578.498535,226.122040 
	C564.833374,226.147003 551.167847,226.116882 537.503479,226.232819 
	C534.941956,226.254547 531.434937,224.953064 530.966064,229.461548 
	C530.540405,233.554489 530.820679,236.672928 536.044556,237.971756 
	C548.334351,241.027420 560.244690,245.409927 572.018372,250.061325 
	C575.662598,251.501038 578.296448,252.177399 579.757019,247.603500 
	C580.104675,246.514847 580.862244,245.424683 582.365723,245.932755 
	C583.316650,246.254089 583.428162,247.114594 583.389526,247.982635 
	C583.299072,250.011581 581.100586,251.922791 583.075134,254.071259 
	C584.107300,255.194366 589.749939,257.146606 592.763977,257.371002 
	C594.047791,256.105560 593.403809,254.592163 593.272827,253.147003 
	C592.430115,243.847855 596.855591,236.897064 605.698792,233.899567 
	C615.288757,230.648972 625.277466,230.128387 635.283203,229.880890 
	C641.936401,229.716324 642.033813,229.769638 641.930176,223.151794 
	C641.799927,214.835983 642.498474,206.482452 640.861816,198.225220 
	C639.354065,190.618652 632.961914,187.616867 626.301758,191.434189 
	C622.496399,193.615280 622.231934,199.228409 625.834656,201.347534 
	C630.314331,203.982513 631.646973,210.060089 628.772583,214.746201 
	C625.290466,220.423065 617.550171,223.262604 609.768311,221.717926 
	C602.911072,220.356781 599.601013,217.173447 598.405762,210.790512 
	C597.151489,204.092026 600.401123,197.106308 606.844910,193.556717 
	C617.578186,187.644302 629.326904,186.633621 641.255493,187.266434 
	C647.392029,187.591965 653.513245,188.337494 659.480896,190.104980 
	C668.343323,192.729858 673.543762,198.511765 675.486328,207.486038 
	C677.231079,215.546738 677.064148,223.703140 677.052856,231.863358 
	C677.043396,238.695999 677.015381,245.529236 677.098389,252.360962 
	C677.122437,254.342377 677.280396,256.376709 677.775391,258.283356 
	C678.328308,260.413483 679.405884,262.439026 682.043518,262.537048 
	C684.473206,262.627350 686.144165,261.247192 687.182617,259.179352 
	C688.773132,256.012177 689.342407,252.551239 689.843323,249.081375 
	C689.985535,248.096359 690.130371,247.078094 691.259644,246.608109 
	C692.623596,246.514709 693.040222,247.558044 692.978882,248.517593 
	C692.268311,259.621429 688.749207,268.352814 677.396973,270.575806 
	C669.653687,272.092072 661.788818,271.732178 654.140076,269.511444 
	C649.487793,268.160706 645.987305,265.128906 643.102417,260.832367 
	C639.854431,263.621704 638.019653,267.596100 633.959961,269.188354 
	C630.244934,270.645386 626.344238,271.057068 621.162903,271.692657 
	C629.558411,276.514496 636.889465,280.635284 644.133850,284.903290 
	C662.545471,295.750458 679.963867,308.012451 696.402588,321.675903 
	C699.331116,324.110077 703.312683,325.077026 705.026917,329.228271 
	C705.925720,331.405060 708.232422,330.750793 710.082520,329.225464 
	C716.317993,324.084656 723.579102,322.248657 731.556519,322.909546 
	C742.308838,323.800323 749.354126,331.961365 748.042114,342.034332 
	C747.171265,348.720001 743.516052,352.728790 736.778748,354.395538 
	C735.178711,354.791351 733.582581,355.202759 731.753662,355.665436 
	C731.993042,358.547058 734.080383,360.130676 735.536316,362.028656 
	C750.043213,380.940033 760.808533,401.563293 764.667480,425.368866 
	C766.663818,437.683838 766.245544,449.902130 763.198547,462.012054 
	C762.840332,463.436005 762.609741,464.992218 760.851929,465.590118 
	C758.437439,464.877441 759.186218,463.080811 759.546204,461.546844 
	C766.446838,432.143707 759.000488,405.501953 743.921509,380.339905 
	C738.945007,372.035828 732.955322,364.435486 727.247864,356.640137 
	C726.129272,355.112274 724.671997,354.066986 723.037170,353.194275 
	C720.449768,351.813110 718.463806,349.880829 717.497864,347.031799 
	C716.836426,345.081177 715.545959,343.642517 714.012695,342.273010 
	C708.109070,337.000244 706.725098,337.369812 704.385376,345.119995 
	C703.512268,348.011932 703.176086,350.977570 703.191650,354.002533 
	C703.231873,361.834625 703.215881,369.667023 703.222839,377.999054 
M487.108887,108.343567 
	C471.132416,100.965096 454.613678,101.254211 437.874908,104.915367 
	C436.019928,105.321106 433.344788,104.789932 432.723389,107.119835 
	C432.071136,109.565620 434.465607,110.847809 436.076050,112.177902 
	C447.527771,121.636047 460.990112,125.875381 475.556427,126.903442 
	C481.165405,127.299316 486.861603,127.558846 492.363312,125.762810 
	C499.592590,123.402779 500.575256,119.116035 495.172363,113.699005 
	C493.021545,111.542580 490.294281,110.268311 487.108887,108.343567 
M537.536987,260.956360 
	C547.558899,269.756531 568.737427,266.687866 574.754883,254.857513 
	C560.793213,249.111267 546.724365,244.025940 531.507568,240.085571 
	C531.008667,248.082916 532.842102,254.553131 537.536987,260.956360 
M550.539062,219.698288 
	C550.974304,212.883926 550.772095,206.093536 549.884399,199.318176 
	C549.169800,193.864288 546.545349,190.826935 542.096069,190.467834 
	C537.888367,190.128204 534.020264,192.936172 532.530945,197.654404 
	C530.708923,203.426239 530.479553,209.429657 530.778137,215.389008 
	C531.143677,222.683807 531.354797,222.923340 538.624451,222.547470 
	C542.528625,222.345596 547.000061,224.489182 550.539062,219.698288 
M630.914246,263.344452 
	C633.944214,265.831909 636.218079,264.122589 638.142273,261.832977 
	C640.567078,258.947876 641.730286,255.475159 641.822876,251.713516 
	C641.933228,247.228058 641.989563,242.738388 641.930420,238.252396 
	C641.864990,233.303787 639.992371,232.065689 635.367981,233.695923 
	C632.822449,234.593262 631.130981,236.385666 630.356995,238.880966 
	C627.889221,246.836746 627.673584,254.821030 630.914246,263.344452 
M374.265747,160.419601 
	C374.175751,163.161682 375.137451,164.935120 378.228851,164.917023 
	C386.713135,164.867355 395.237793,165.596680 403.624786,163.689835 
	C405.808197,163.193420 408.252502,162.928726 409.067139,160.458755 
	C408.429932,158.447769 406.903992,157.964249 405.506378,157.575317 
	C396.407745,155.043243 387.091522,154.846848 377.737244,155.167694 
	C374.837891,155.267136 374.171783,157.133636 374.265747,160.419601 
M725.708984,334.237915 
	C726.125671,331.141479 724.671875,329.457275 721.660461,329.246552 
	C717.652893,328.966125 713.565552,329.817413 711.794128,333.523529 
	C710.406006,336.427887 713.985718,337.727417 716.061768,339.808136 
	C718.369019,336.268494 723.191162,338.394684 725.708984,334.237915 
M360.984100,157.157242 
	C359.370911,157.604507 357.526428,158.060349 357.757935,160.173752 
	C357.938110,161.818680 359.655243,162.257370 361.003479,162.858719 
	C363.007935,163.752792 365.138519,163.836243 367.277832,163.925171 
	C370.141418,164.044189 370.928589,162.449371 370.889954,159.888229 
	C370.850494,157.269028 369.861023,155.759369 367.068970,156.069260 
	C365.281738,156.267624 363.514893,156.649933 360.984100,157.157242 
z"/>
<path fill="#000000" opacity="1.000000" stroke="none" 
	d="
M342.231506,323.308105 
	C335.347382,328.418549 327.466705,330.728088 318.651001,334.469299 
	C337.217468,344.505127 354.646179,353.971008 371.592773,365.747375 
	C373.576447,359.794434 374.216217,354.416168 374.824646,349.057465 
	C376.266327,336.359650 377.997040,337.197113 363.794159,337.182648 
	C361.712524,337.180511 359.073639,338.271606 357.741577,335.427246 
	C358.768890,332.917358 360.862640,333.655334 362.538971,333.646973 
	C372.529236,333.597229 382.521576,334.005646 392.507690,333.242584 
	C394.347931,333.101990 397.211700,332.675140 397.074554,335.560913 
	C396.952942,338.118652 394.259155,337.242493 392.585480,337.245575 
	C382.029572,337.264923 382.057739,337.238922 380.600739,347.700378 
	C379.682953,354.289978 378.768829,360.883514 377.634491,367.437500 
	C377.252441,369.644958 377.673523,371.327271 379.115875,372.926178 
	C381.346802,375.399353 383.583435,377.871460 385.714935,380.429596 
	C399.478790,396.948364 400.823914,417.394440 389.288025,435.527954 
	C378.980072,451.731262 364.521210,462.014557 345.356567,464.503723 
	C336.431152,465.662994 327.398163,464.575928 319.043701,460.504669 
	C311.473633,456.815643 308.067535,451.103241 308.818298,443.344788 
	C309.483124,436.474213 314.611511,431.024506 322.514587,429.358704 
	C328.174042,428.165771 333.783264,428.506866 338.952972,431.585938 
	C343.824371,434.487366 345.479645,438.931763 345.027130,444.324707 
	C344.779541,447.275543 343.601288,449.490234 340.087341,449.302277 
	C337.217377,449.148712 335.265533,449.971954 335.075073,453.343109 
	C334.873474,456.911163 336.253815,458.956757 339.784851,459.836365 
	C348.042267,461.893402 357.237091,458.688446 362.039856,451.128296 
	C369.606781,439.216949 370.636047,426.555237 365.037262,413.484283 
	C364.710205,412.720703 364.301300,411.989868 363.899170,411.261047 
	C357.882080,400.355530 357.795471,400.411438 347.682770,406.945587 
	C337.974823,413.218170 327.262970,416.661621 315.706573,417.171295 
	C298.302032,417.938873 281.043091,417.134277 264.470734,411.030426 
	C252.706650,406.697571 243.727585,399.588379 241.717514,386.291290 
	C239.320740,370.436005 246.445984,358.581787 261.473999,352.955933 
	C265.952576,351.279327 270.807220,350.586975 274.949341,348.039612 
	C275.041565,345.647186 273.141266,344.827972 271.916016,343.604553 
	C266.682770,338.379120 262.121704,332.682526 259.381958,325.733154 
	C252.887390,309.259796 259.329071,292.263611 275.791046,284.052521 
	C295.599548,274.172180 316.436279,274.375732 337.137268,280.314850 
	C349.661224,283.908020 356.106628,293.455170 355.136566,304.253723 
	C354.375793,312.722931 349.228210,318.491394 342.231506,323.308105 
M295.167419,410.440277 
	C302.540802,413.048584 310.193756,413.181824 317.847931,412.719666 
	C329.486298,412.016907 339.801544,407.921906 348.765411,400.327423 
	C351.906281,397.666351 352.025452,395.723358 348.578766,393.422913 
	C346.094055,391.764496 343.789734,389.837860 341.380798,388.063660 
	C327.943359,378.166931 312.813385,371.088074 298.644318,362.408997 
	C292.598145,358.705475 286.558533,354.991302 280.723541,351.409393 
	C278.277588,353.022766 278.167694,355.144318 277.787659,357.034149 
	C275.602814,367.898499 275.305542,378.825470 277.424408,389.718872 
	C279.339966,399.566925 284.762939,406.674286 295.167419,410.440277 
M305.060638,326.423920 
	C307.150452,327.779541 309.232483,329.147369 311.332581,330.486847 
	C312.947906,331.517120 314.604523,332.020050 316.491272,331.070770 
	C322.050354,328.273804 326.553070,324.502380 327.957977,318.112854 
	C329.425751,311.437134 330.088684,304.744507 328.936829,297.864716 
	C326.729706,284.682098 317.451385,278.022278 304.265717,280.628296 
	C296.971527,282.069916 290.213104,284.651276 288.091492,292.726562 
	C285.726837,301.726959 286.902954,310.189026 293.597198,317.309570 
	C296.814026,320.731201 300.687256,323.309784 305.060638,326.423920 
z"/>
<path fill="#000000" opacity="1.000000" stroke="none" 
	d="
M445.125122,387.828461 
	C435.133026,358.293640 426.835236,328.616028 415.917084,298.336639 
	C414.493073,301.907043 414.286377,304.388336 414.302673,306.903229 
	C414.488373,335.557861 414.016602,364.216431 414.908630,392.868378 
	C415.023834,396.569580 416.289551,398.023743 419.954132,397.720123 
	C421.476807,397.593964 423.369110,397.099274 424.748383,400.054993 
	C416.462372,400.054993 408.624817,400.054993 400.569122,400.054993 
	C401.265778,397.102234 403.270477,397.668304 404.720764,397.746552 
	C408.671387,397.959717 409.903015,396.178284 409.894714,392.370605 
	C409.825745,360.710419 409.833588,329.049622 409.996460,297.389923 
	C410.017517,293.295258 408.486786,291.613403 404.583252,291.498260 
	C403.333496,291.461365 401.864044,291.755005 400.790619,290.308563 
	C401.427521,288.082886 403.356659,288.751099 404.811584,288.750763 
	C418.142181,288.747559 431.474274,288.942230 444.802429,288.783508 
	C448.957336,288.734039 450.556854,290.510437 451.688721,294.277740 
	C458.682739,317.556427 465.908569,340.765472 473.066071,363.995026 
	C473.494110,365.384186 473.612488,366.965973 475.439148,367.935333 
	C478.008881,364.534546 478.513550,360.354492 479.602661,356.488983 
	C485.472778,335.654236 491.223206,314.785248 496.887146,293.893402 
	C497.875916,290.246277 499.754730,288.787689 503.590027,288.772522 
	C516.914429,288.719788 530.250122,289.359009 543.565491,288.308655 
	C545.147278,288.183899 546.966858,287.971375 547.754883,290.115021 
	C546.837036,292.379913 544.783813,292.039978 543.096191,291.918152 
	C539.009949,291.623169 538.009949,293.640533 538.023499,297.341888 
	C538.138611,328.822479 537.301208,360.302032 537.998413,391.786163 
	C538.095093,396.152252 538.980164,398.500793 543.916565,397.550812 
	C545.429626,397.259644 547.257812,397.387665 548.622375,400.184692 
	C529.325439,400.184692 510.630066,400.184692 491.413239,400.184692 
	C492.859802,396.967102 495.102905,397.789307 496.872986,397.738251 
	C499.879761,397.651550 501.613129,396.487579 501.616608,393.292786 
	C501.650665,362.140350 502.179321,330.987152 501.455139,299.836182 
	C501.452240,299.710785 501.279144,299.589386 500.816589,298.980103 
	C498.793396,301.853607 498.284058,305.097626 497.448212,308.123108 
	C489.335785,337.488586 481.271729,366.867615 473.293732,396.269836 
	C472.454102,399.364105 471.009155,400.737122 467.695465,400.515076 
	C463.380371,400.225922 459.016632,400.056213 454.713074,400.371246 
	C450.398590,400.687073 448.178101,399.014618 447.329865,394.877930 
	C446.863892,392.605499 445.973114,390.420166 445.125122,387.828461 
z"/>
<path fill="#000000" opacity="1.000000" stroke="none" 
	d="
M351.911407,241.999985 
	C351.893921,229.506790 351.902466,217.513474 351.845642,205.520447 
	C351.826324,201.440933 351.712830,197.109238 346.900482,195.644958 
	C342.342987,194.258209 338.868378,196.724396 335.948456,199.969406 
	C331.651520,204.744781 329.366089,210.425644 329.307953,216.802612 
	C329.169800,231.958313 329.277588,247.116074 329.205505,262.272644 
	C329.190582,265.406586 330.385803,266.928497 333.632721,266.765472 
	C334.892853,266.702179 336.371582,266.557770 337.032806,268.157593 
	C334.752319,270.375366 288.722534,270.783691 284.729431,268.615356 
	C285.076019,266.430023 286.902008,266.719177 288.209839,266.881104 
	C293.794403,267.572571 294.849457,264.762299 294.810242,259.818665 
	C294.621277,236.000214 294.732697,212.179398 294.731537,188.359436 
	C294.730957,176.532761 294.726593,164.706070 294.706543,152.879410 
	C294.694641,145.853210 294.678864,145.861420 287.816895,145.351929 
	C286.714020,145.270035 285.408875,145.573975 284.817200,144.024338 
	C285.518097,141.719131 287.503998,142.622528 288.938141,142.618271 
	C300.264465,142.584641 311.594330,142.829590 322.916077,142.616241 
	C327.657074,142.526871 329.304535,144.037155 329.215424,148.921539 
	C328.932953,164.407486 329.085358,179.901703 329.119843,195.392624 
	C329.123810,197.172791 328.761292,199.041962 329.924683,201.038895 
	C332.116791,200.296799 333.182098,198.300339 334.360321,196.703888 
	C343.626892,184.147659 368.351990,185.173004 378.258118,193.465118 
	C383.450226,197.811310 385.598938,203.650970 386.194672,210.147568 
	C387.688416,226.437164 386.586273,242.774139 386.950439,259.086304 
	C387.110413,266.252441 386.974213,266.251740 394.129456,266.818390 
	C395.252014,266.907257 396.531219,266.698730 397.048859,268.139801 
	C394.643311,270.478699 348.767517,270.842316 344.712097,268.510254 
	C344.916870,268.097839 345.134308,267.309265 345.330994,267.314423 
	C352.228455,267.494720 352.139526,262.925812 351.946350,257.988708 
	C351.744629,252.833237 351.908051,247.663483 351.911407,241.999985 
z"/>
<path fill="#000000" opacity="1.000000" stroke="none" 
	d="
M758.122681,263.210571 
	C757.444031,259.971252 756.195801,260.714355 754.781128,262.276398 
	C745.971252,272.003998 734.567200,272.432190 722.951782,270.395050 
	C710.797852,268.263519 703.427368,260.212524 699.847839,248.678467 
	C696.207703,236.949219 696.566956,225.118439 699.154175,213.183960 
	C703.189331,194.570709 718.287537,185.841660 738.963745,187.511902 
	C744.952698,187.995697 750.660217,189.660767 755.265198,193.710953 
	C757.334106,191.424545 756.736206,189.331406 756.739807,187.425476 
	C756.761902,175.770615 756.693359,164.115570 756.645752,152.460602 
	C756.620789,146.341309 756.145874,145.877380 749.787170,145.415436 
	C748.364014,145.312057 746.747375,145.813263 745.514160,144.074783 
	C746.365906,141.647766 748.602417,142.147308 750.387512,142.136307 
	C762.362183,142.062454 774.334412,143.171677 786.313477,142.138992 
	C790.984863,141.736298 792.187012,144.244354 792.174194,148.567917 
	C792.066162,185.031387 792.117981,221.495316 792.123596,257.959106 
	C792.124756,265.326141 792.131836,265.311310 799.125488,266.920807 
	C799.693359,267.051514 800.170654,267.575745 800.667114,267.902069 
	C800.182007,270.530518 798.241516,270.114197 796.727844,270.113800 
	C786.072144,270.111053 775.414429,269.884064 764.761658,270.034180 
	C760.031250,270.100830 758.840454,267.274689 758.122681,263.210571 
M756.661804,203.321304 
	C753.797546,195.381760 748.910828,191.489365 742.762085,192.249847 
	C737.802490,192.863266 735.203918,197.085556 734.122253,205.787857 
	C732.431458,219.391602 733.190613,233.031143 733.496155,246.654022 
	C733.584534,250.595398 733.963623,254.630753 735.383850,258.434265 
	C736.762146,262.125305 739.266907,264.001221 743.323120,263.978851 
	C750.559937,263.938995 756.775513,257.807037 756.880249,249.578537 
	C757.072937,234.445953 756.844604,219.308014 756.661804,203.321304 
z"/>
<path fill="#000000" opacity="1.000000" stroke="none" 
	d="
M184.969528,269.657043 
	C182.263916,267.665588 183.647461,266.655396 185.563293,266.330902 
	C187.675018,265.973328 189.873001,266.070831 192.033600,266.066376 
	C198.711517,266.052673 198.854401,265.994659 198.878128,259.500458 
	C198.926224,246.343277 198.901413,233.185806 198.901413,220.028458 
	C198.901413,200.209152 198.914566,180.389801 198.883591,160.570541 
	C198.874222,154.577255 197.671158,153.563049 191.707275,154.548035 
	C184.408447,155.753510 178.704025,159.391785 174.870880,165.837204 
	C170.945480,172.437698 167.604401,179.292603 165.053787,186.555618 
	C164.294189,188.718689 164.087402,191.528244 161.332855,192.432404 
	C159.411392,191.411606 159.757706,189.776260 159.829178,188.346100 
	C160.377335,177.377747 161.081131,166.416138 161.512970,155.443619 
	C161.649887,151.965363 163.116623,150.842255 166.430679,150.849228 
	C200.239655,150.920319 234.048813,150.918869 267.857910,150.897324 
	C270.994812,150.895340 272.973450,151.863052 273.088226,155.373718 
	C273.452728,166.520630 273.908783,177.664536 274.285156,188.811096 
	C274.328033,190.080032 274.587524,191.538986 272.978119,192.348846 
	C270.532501,192.238403 270.504150,190.001678 269.843750,188.472717 
	C266.414917,180.534210 263.520386,172.366501 258.769714,165.030807 
	C254.432693,158.333832 248.189789,155.189575 240.499084,154.347733 
	C237.031479,153.968155 235.220337,155.050720 235.230942,158.938400 
	C235.324539,193.247055 235.332443,227.556046 235.298813,261.864868 
	C235.295853,264.889618 236.573425,265.877991 239.476089,266.049316 
	C243.305008,266.275269 247.420746,264.945923 250.978882,267.485504 
	C250.624908,270.478149 248.449966,270.027252 246.776306,270.015198 
	C232.457291,269.912201 218.139130,269.688812 203.820099,269.587677 
	C197.667648,269.544189 191.513748,269.704376 184.969528,269.657043 
z"/>
<path fill="#000000" opacity="1.000000" stroke="none" 
	d="
M824.000122,327.820129 
	C834.590942,333.108215 839.252502,341.841370 840.181091,352.863190 
	C840.671387,358.683258 840.047607,359.268707 834.341309,359.292267 
	C820.677429,359.348633 807.012207,359.487122 793.350281,359.338715 
	C788.928711,359.290680 787.036499,360.611969 787.161865,365.336365 
	C787.344482,372.217712 787.911987,378.983887 790.175903,385.500732 
	C792.753906,392.921661 797.682617,396.477234 805.429077,396.982269 
	C819.124634,397.875153 830.092102,393.848083 835.983582,380.387878 
	C836.303955,379.655945 836.888855,378.997681 837.481018,378.444672 
	C837.778503,378.166901 838.369385,378.203369 838.784485,378.107697 
	C840.823669,379.641754 839.536011,381.168762 838.920532,382.595276 
	C834.545227,392.736908 826.615845,398.829010 816.049683,400.863495 
	C803.340515,403.310608 790.535583,403.147827 777.988708,399.334686 
	C761.102966,394.202850 752.826965,382.467651 751.393616,365.167999 
	C750.078735,349.297974 756.424927,336.714050 771.493713,329.302795 
	C788.432617,320.971680 806.015320,320.049713 824.000122,327.820129 
M787.285217,344.726318 
	C787.284241,346.555267 787.445740,348.401825 787.249695,350.209625 
	C786.787537,354.472076 788.366760,356.417542 792.844788,356.026245 
	C796.147278,355.737732 799.490356,355.890503 802.815308,355.888733 
	C805.436340,355.887360 806.929077,354.692841 806.898132,352.004669 
	C806.829224,346.023621 806.945251,340.024414 806.500061,334.068970 
	C806.171448,329.673218 803.757324,326.631134 798.923401,326.289917 
	C794.070496,325.947327 790.666931,328.260468 789.205261,333.034882 
	C788.132446,336.538971 787.488892,340.136597 787.285217,344.726318 
z"/>
<path fill="#000000" opacity="1.000000" stroke="none" 
	d="
M823.055542,191.899017 
	C833.845825,185.999924 844.666809,186.180313 855.834656,189.394089 
	C861.942444,191.151749 868.527832,197.544296 874.230042,186.755936 
	C875.424194,196.019714 875.206177,203.617889 874.948792,211.634125 
	C871.581116,211.123032 871.316956,208.634964 870.345703,206.937592 
	C862.299133,192.875214 849.185059,188.559601 833.539551,192.083435 
	C829.121216,193.078583 825.748779,195.572113 825.655579,200.491089 
	C825.561646,205.446533 829.152710,207.984589 833.269226,209.274368 
	C839.934937,211.362869 846.747986,212.991104 853.524963,214.710953 
	C858.077393,215.866257 862.321899,217.774826 866.590332,219.656036 
	C876.493408,224.020569 880.762024,232.163269 880.717346,242.403336 
	C880.672791,252.607697 876.999207,261.408447 867.387207,266.485077 
	C855.022644,273.015533 842.077209,272.993347 829.068481,268.911987 
	C818.551941,265.612518 818.621155,265.391876 809.326538,271.570007 
	C808.629456,261.329498 808.797119,251.978745 809.119263,242.352692 
	C812.161743,242.936935 812.518494,244.569855 812.942810,245.916061 
	C818.851074,264.658142 835.638611,268.696442 850.228699,267.333740 
	C853.018372,267.073212 855.855774,266.464233 858.479980,265.497223 
	C862.227478,264.116241 864.315247,261.088196 864.635132,257.115082 
	C864.958740,253.096802 862.644287,250.628296 859.250854,248.916458 
	C854.431946,246.485443 849.206177,245.413422 844.000305,244.296280 
	C836.967529,242.787048 830.312622,240.226440 823.622314,237.628036 
	C803.327454,229.745865 807.218018,202.429092 819.404358,194.291916 
	C820.512451,193.552032 821.621216,192.813263 823.055542,191.899017 
z"/>
<path fill="#000000" opacity="1.000000" stroke="none" 
	d="
M623.437988,400.224060 
	C621.668701,400.587067 620.481018,400.045135 619.491455,399.059937 
	C607.587585,387.208038 600.509521,373.477112 602.590942,356.093231 
	C602.945190,353.134735 603.933228,351.497467 607.237671,351.666229 
	C610.491089,351.832428 612.263794,353.109467 612.068481,356.531036 
	C611.945251,358.690247 612.275696,360.994507 611.628662,362.981750 
	C609.878357,368.358002 612.725647,370.089020 617.651428,371.242889 
	C617.371399,366.746979 616.838867,362.659302 616.934631,358.586334 
	C617.050232,353.667664 618.514893,352.885925 622.784363,355.188599 
	C630.848572,359.537903 638.978516,363.799103 644.566956,371.514679 
	C649.658936,378.544952 649.523682,380.064056 642.430481,386.021667 
	C644.215759,387.572144 646.233154,386.745605 648.074524,386.734894 
	C651.375122,386.715668 653.570801,388.133118 654.127930,391.438873 
	C654.588806,394.174103 653.615967,396.510071 650.917236,397.532959 
	C647.568359,398.802307 645.336243,396.956970 644.194336,394.071442 
	C641.922180,388.329773 635.642883,388.152649 631.140198,383.600677 
	C631.571106,386.007874 632.563904,386.467712 633.412170,387.046600 
	C635.489258,388.464111 637.460144,389.980560 634.691772,392.474030 
	C632.497498,394.450409 630.149719,396.343536 627.574219,392.949280 
	C624.542847,388.954224 621.791138,384.775482 620.117676,380.008636 
	C619.101196,377.113434 617.412292,375.159363 613.194397,374.669556 
	C617.370483,381.563965 621.133789,387.898712 625.030273,394.150421 
	C626.612549,396.688995 627.071533,398.752502 623.437988,400.224060 
z"/>
<path fill="#000000" opacity="1.000000" stroke="none" 
	d="
M563.219727,360.213684 
	C559.437866,362.587921 557.722717,366.803223 553.642883,368.822632 
	C552.198242,365.854919 553.772888,363.698975 554.876770,361.680206 
	C563.888550,345.199738 578.723022,338.238922 596.639587,336.733673 
	C606.215088,335.929199 615.554321,337.597534 624.617126,340.754303 
	C626.867004,341.537933 629.119507,342.531860 630.179077,339.295685 
	C629.198975,336.548737 622.821899,337.940582 625.273987,333.488495 
	C626.552002,331.168091 628.466614,326.964539 632.891479,328.842224 
	C635.795105,330.074310 635.377014,332.332001 634.495911,335.033966 
	C639.580261,329.249603 644.661438,323.462433 649.751282,317.682922 
	C651.049316,316.208984 650.212463,314.521362 650.337708,312.916138 
	C650.576294,309.858490 652.430542,308.066956 655.458557,307.749237 
	C658.247742,307.456635 660.389709,308.681213 661.382263,311.324982 
	C662.339355,313.874451 661.421082,316.617554 659.040405,317.145233 
	C652.652161,318.561127 649.771545,323.838318 645.883728,327.991089 
	C642.020569,332.117554 638.582764,336.645264 634.677246,340.727966 
	C631.979858,343.547729 632.297607,345.305359 635.523926,347.286621 
	C642.454041,351.542267 647.095337,357.692047 649.647156,365.400482 
	C650.140564,366.890717 651.193420,368.393311 650.056335,370.093445 
	C623.695557,344.946320 595.067017,339.774567 563.219727,360.213684 
z"/>
<path fill="#000000" opacity="1.000000" stroke="none" 
	d="
M572.141724,452.924011 
	C569.046143,454.325256 569.131104,451.658752 568.445557,450.295135 
	C564.875427,443.194061 561.649597,435.911102 556.838318,429.294678 
	C556.793701,437.797241 555.003052,446.255493 557.822693,454.647888 
	C555.935120,455.641449 554.031555,455.487030 552.142700,454.855225 
	C555.073792,444.627594 553.063416,434.215424 553.866028,423.948364 
	C560.959717,421.862579 563.424072,422.949036 566.660889,429.121002 
	C568.948608,433.483398 570.641113,438.222595 574.233276,442.284882 
	C577.647278,438.359772 579.006714,433.667297 581.285278,429.518463 
	C584.969482,422.810211 587.153259,421.786560 595.167358,423.833099 
	C595.462830,433.373108 593.797974,442.959076 594.928833,452.558136 
	C595.172363,454.625397 593.536682,455.026733 591.953857,455.018921 
	C589.839661,455.008453 587.615479,455.583405 585.464355,454.045685 
	C585.983521,445.909119 585.988770,437.673615 585.116272,429.262115 
	C581.074890,437.249664 576.536255,444.844727 572.141724,452.924011 
z"/>
<path fill="#000000" opacity="1.000000" stroke="none" 
	d="
M428.505554,423.070923 
	C433.934692,423.040558 438.904968,422.542511 443.898376,423.529663 
	C447.748779,424.290894 451.087341,425.521851 452.262878,429.577850 
	C453.554382,434.033997 449.857361,435.619293 447.014099,437.616180 
	C447.501404,439.656891 449.511261,439.688904 450.746399,440.627930 
	C455.553497,444.282532 455.282074,450.073822 449.902374,452.728180 
	C441.879486,456.686737 433.468323,455.194061 424.939575,454.654877 
	C426.371429,444.970520 425.889343,435.842529 425.438812,426.739807 
	C425.321991,424.379883 425.691284,423.247772 428.505554,423.070923 
M441.680878,440.664276 
	C434.275299,438.489075 433.882721,438.789001 433.954559,446.567474 
	C433.956085,446.732788 433.951080,446.898529 433.960480,447.063385 
	C434.110229,449.688385 433.731598,452.703888 437.732483,452.715851 
	C441.493439,452.727112 444.155487,451.175964 444.747986,447.197876 
	C445.111725,444.755920 444.414673,442.608826 441.680878,440.664276 
M437.020630,437.229401 
	C440.164703,436.832794 442.919769,435.824280 443.696716,432.310181 
	C444.161041,430.209991 443.610779,428.093811 441.721588,427.069458 
	C439.515594,425.873383 436.897797,424.041809 434.591125,426.832916 
	C432.866852,428.919403 434.115967,435.607178 437.020630,437.229401 
z"/>
<path fill="#000000" opacity="1.000000" stroke="none" 
	d="
M575.866211,386.089081 
	C579.701172,392.589355 584.733093,397.528625 590.952881,401.800171 
	C589.894043,402.490265 589.464294,403.001404 589.160583,402.935089 
	C575.800903,400.018433 563.955627,394.767822 556.606323,382.275757 
	C554.684082,379.008392 554.574768,376.146667 556.613708,373.010590 
	C559.711365,368.246185 563.448792,364.217896 569.299133,360.848114 
	C570.767212,369.885498 571.336548,378.378204 575.866211,386.089081 
z"/>
<path fill="#000000" opacity="1.000000" stroke="none" 
	d="
M565.516968,328.456451 
	C572.827881,323.089508 580.581726,319.760681 589.112183,318.271271 
	C590.041565,320.632233 588.497681,321.134369 587.515015,321.830994 
	C585.056274,323.574005 582.430969,325.350830 581.258301,328.107452 
	C578.948730,333.536438 574.884888,336.495636 569.630798,338.827209 
	C562.661133,341.920135 557.275757,347.108307 553.604614,353.917694 
	C553.062317,354.923645 552.643005,356.064209 551.371460,356.430420 
	C548.152405,350.842957 554.716187,337.705231 565.516968,328.456451 
z"/>
<path fill="#000000" opacity="1.000000" stroke="none" 
	d="
M613.621948,422.289246 
	C618.193604,421.312317 621.876099,423.353546 625.650879,424.420166 
	C628.602417,425.254120 627.625366,428.028595 627.675415,430.112457 
	C625.623108,430.799469 625.190735,429.414551 624.479065,428.633179 
	C622.462097,426.418640 619.978088,425.229218 617.010376,425.117737 
	C614.301514,425.015930 611.278992,424.891205 610.520325,428.265503 
	C609.834839,431.314453 612.381165,432.630035 614.659363,433.728973 
	C617.205688,434.957336 619.879272,435.923248 622.418701,437.164612 
	C627.985535,439.885834 630.445984,443.676239 629.556213,447.918518 
	C628.639160,452.290985 623.750793,455.798798 618.268677,456.240143 
	C613.520630,456.622406 609.352661,453.654236 604.554199,454.357361 
	C603.402771,451.560669 603.777771,449.097839 604.507690,445.160706 
	C607.787415,449.592438 610.596863,452.692963 615.198853,453.289978 
	C618.662964,453.739410 622.021667,453.349213 623.265808,450.029144 
	C624.644165,446.350769 621.194580,444.899261 618.512024,443.567017 
	C616.428528,442.532318 614.218201,441.756409 612.095154,440.797119 
	C607.830811,438.870239 603.798889,436.417969 604.174133,431.054657 
	C604.543579,425.775391 608.592651,423.601501 613.621948,422.289246 
z"/>
<path fill="#000000" opacity="1.000000" stroke="none" 
	d="
M594.476807,383.343140 
	C590.572144,374.872620 588.441162,366.437775 589.305054,357.388672 
	C589.635498,353.927368 591.200745,352.329193 594.810547,352.669891 
	C598.642273,353.031525 598.281555,355.743713 597.967590,358.181213 
	C595.848389,374.631805 602.417236,387.646637 613.757507,398.859497 
	C614.947998,400.036591 617.418091,401.230499 615.826416,403.221375 
	C614.249939,405.193207 612.432068,403.236053 611.134460,402.163757 
	C604.704407,396.850159 598.511597,391.292908 594.476807,383.343140 
z"/>
<path fill="#000000" opacity="1.000000" stroke="none" 
	d="
M519.212769,422.969849 
	C521.465088,423.043213 523.292358,423.093536 525.115662,423.207336 
	C525.403809,423.225281 525.674194,423.529846 526.147949,423.822449 
	C524.391357,431.760803 525.471497,439.895050 525.185791,447.986908 
	C525.065674,451.387451 526.580505,452.614349 529.951416,452.786285 
	C536.486511,453.119598 542.084412,452.167755 543.796509,443.533508 
	C547.059021,450.788208 544.634399,455.198608 538.642151,455.270569 
	C531.049194,455.361755 523.454285,455.292633 515.797668,455.292633 
	C515.883728,444.649902 516.604370,435.022919 515.432495,425.419952 
	C515.109436,422.772034 517.205444,423.157349 519.212769,422.969849 
z"/>
<path fill="#000000" opacity="1.000000" stroke="none" 
	d="
M462.264435,426.926819 
	C461.408875,425.769012 460.130157,424.890320 461.433441,423.721191 
	C464.004181,421.414948 471.115814,423.665802 472.376038,426.981232 
	C474.036530,431.349670 476.709808,435.086792 480.190460,439.066620 
	C483.881866,434.896362 487.467041,431.170990 488.853577,426.141205 
	C489.833893,422.585114 491.639465,422.691620 494.993561,423.829590 
	C492.419342,427.481842 490.406708,431.099426 487.674988,434.051544 
	C482.275635,439.886566 479.927429,446.319672 482.759735,454.073395 
	C478.846161,455.853638 475.474854,454.837891 471.341431,454.946381 
	C476.412537,442.701630 467.687134,435.566040 462.264435,426.926819 
z"/>
<path fill="#000000" opacity="1.000000" stroke="none" 
	d="
M578.489746,378.264587 
	C576.242310,372.941315 575.525574,367.673035 575.011902,362.373871 
	C574.800415,360.192108 574.867432,358.127838 577.242310,356.791260 
	C581.651001,354.309937 583.836670,355.224670 583.955566,360.271332 
	C584.217285,371.382690 587.251709,381.526642 593.555603,390.705719 
	C595.741333,393.888245 598.433044,396.574585 601.218567,399.196838 
	C602.383667,400.293671 603.906250,401.140472 604.393616,404.159058 
	C592.169373,398.397827 583.519287,390.469299 578.489746,378.264587 
z"/>
<path fill="#000000" opacity="1.000000" stroke="none" 
	d="
M644.421875,347.564606 
	C643.007019,346.386383 641.887207,345.402924 640.697083,344.513702 
	C638.641602,342.977905 637.036194,341.521851 639.775085,339.076813 
	C642.003479,337.087494 643.776001,336.535919 645.890991,339.313446 
	C648.707764,343.012787 652.345093,352.094574 652.159546,356.276855 
	C648.624207,354.174225 647.548096,350.161194 644.421875,347.564606 
z"/>
<path fill="#000000" opacity="1.000000" stroke="none" 
	d="
M592.833740,323.759888 
	C596.454895,321.234680 599.672791,318.629181 604.258911,318.879425 
	C601.391479,325.371948 591.181091,332.633301 586.532410,331.451447 
	C587.248718,327.890594 590.479858,326.383148 592.833740,323.759888 
z"/>
<path fill="#000000" opacity="1.000000" stroke="none" 
	d="
M602.779053,326.779572 
	C606.617737,322.865784 610.235046,319.254822 617.604187,319.612610 
	C613.652649,323.988037 610.735596,327.587555 607.391479,330.733063 
	C606.110352,331.938141 603.818542,331.552246 602.228333,330.417145 
	C600.624451,329.272278 601.731140,328.114136 602.779053,326.779572 
z"/>
<path fill="#000000" opacity="1.000000" stroke="none" 
	d="
M623.203735,323.031494 
	C625.025330,322.951202 626.674744,323.447784 626.338867,325.017670 
	C625.631287,328.324829 623.695862,331.303833 620.895447,333.027618 
	C618.734375,334.357880 616.150574,333.346405 613.996887,331.184113 
	C616.733154,328.024261 619.533752,325.298859 623.203735,323.031494 
z"/>
</svg>