<?xml version="1.0" standalone="no"?>
<!DOCTYPE svg PUBLIC "-//W3C//DTD SVG 20010904//EN"
 "http://www.w3.org/TR/2001/REC-SVG-20010904/DTD/svg10.dtd">
<svg version="1.0" xmlns="http://www.w3.org/2000/svg"
 width="1600.000000pt" height="801.000000pt" viewBox="0 0 1600.000000 801.000000"
 preserveAspectRatio="xMidYMid meet">

<g transform="translate(0.000000,801.000000) scale(0.100000,-0.100000)"
fill="#000000" stroke="none">
<path d="M8491 7625 c0 -11 7 -47 15 -80 l14 -60 -6 65 c-5 62 -24 122 -23 75z"/>
<path d="M8511 7392 c-2 -48 -41 -117 -87 -151 -50 -38 -53 -56 -4 -21 62 44
113 141 97 182 -3 7 -6 3 -6 -10z"/>
<path d="M8276 7174 c-54 -16 -146 -30 -291 -44 -398 -38 -608 -74 -790 -135
-106 -35 -215 -81 -215 -90 0 -3 17 2 38 11 235 99 507 155 952 194 74 7 173
20 220 31 86 18 180 47 180 55 0 6 -8 4 -94 -22z"/>
<path d="M6887 6859 c-37 -23 -65 -44 -63 -47 5 -4 79 39 119 70 37 29 15 20
-56 -23z"/>
<path d="M6779 6773 l-24 -28 28 24 c15 14 27 26 27 28 0 8 -8 1 -31 -24z"/>
<path d="M6695 6679 c-4 -6 -5 -12 -2 -15 2 -3 7 2 10 11 7 17 1 20 -8 4z"/>
<path d="M6661 6613 c-20 -43 -25 -118 -12 -169 14 -54 9 -63 -47 -81 l-37
-13 54 5 c30 2 60 0 67 -6 9 -7 15 -5 23 10 16 29 78 44 284 71 256 33 560
-26 704 -136 19 -14 36 -24 38 -22 9 9 -126 90 -198 118 -199 79 -493 89 -736
26 -102 -26 -125 -22 -135 24 -9 47 -7 120 4 159 12 43 7 50 -9 14z"/>
<path d="M6482 6329 c-35 -11 -62 -22 -60 -25 6 -5 138 35 138 41 0 8 -10 5
-78 -16z"/>
<path d="M6727 6301 c59 -109 325 -243 569 -285 118 -21 286 -21 371 1 83 21
143 72 143 123 0 33 -47 127 -57 116 -4 -3 2 -15 12 -26 22 -24 31 -100 15
-129 -6 -13 -37 -35 -68 -49 -55 -26 -63 -27 -227 -26 -141 0 -185 4 -260 23
-193 48 -388 148 -478 245 -38 41 -38 41 -20 7z"/>
<path d="M6345 6275 c-27 -14 -43 -23 -35 -21 59 18 90 30 90 38 0 11 2 11
-55 -17z"/>
<path d="M6241 6225 c-61 -36 -171 -117 -171 -128 0 -5 28 13 63 40 34 27 83
62 110 77 26 15 47 29 47 31 0 7 -2 7 -49 -20z"/>
<path d="M6040 6075 c-8 -9 -8 -15 -2 -15 12 0 26 19 19 26 -2 2 -10 -2 -17
-11z"/>
<path d="M5995 6029 c-11 -17 1 -21 15 -4 8 9 8 15 2 15 -6 0 -14 -5 -17 -11z"/>
<path d="M5953 5973 c-10 -16 -21 -30 -24 -33 -13 -9 -87 -155 -99 -195 -19
-61 -26 -65 -97 -65 -89 0 -228 -34 -285 -70 -146 -91 -6 -218 260 -236 100
-7 122 -15 122 -43 0 -27 76 -176 120 -236 87 -117 240 -247 385 -327 l80 -44
0 -439 0 -440 -70 -3 c-38 -2 -74 -7 -80 -13 -5 -5 150 -10 423 -10 238 -1
437 -2 442 -3 6 -1 10 4 10 9 0 6 -42 12 -97 15 l-98 5 -3 334 c-1 188 2 339
7 344 5 5 43 2 92 -7 89 -16 295 -44 524 -71 77 -9 144 -20 148 -24 4 -5 12
-39 18 -77 20 -148 68 -253 157 -346 135 -142 304 -198 600 -198 240 0 359 38
476 153 36 36 73 68 81 71 8 3 39 -6 70 -19 30 -14 55 -22 55 -19 0 3 -25 16
-55 29 -61 27 -66 40 -40 102 25 59 0 65 -27 7 -15 -31 -30 -50 -43 -52 -11
-1 -56 12 -100 29 -152 58 -426 150 -437 147 -6 -2 78 -35 188 -72 347 -119
364 -129 302 -193 -87 -90 -199 -134 -343 -134 -49 0 -105 5 -123 10 -125 37
-206 167 -219 354 -5 59 -3 77 7 77 9 0 8 5 -3 18 -13 14 -17 38 -17 89 0 39
3 78 6 87 5 14 42 16 298 17 160 1 345 4 411 8 l120 6 -3 60 c-8 205 -97 353
-257 430 -139 67 -361 92 -536 60 -149 -28 -237 -62 -335 -131 -133 -93 -203
-212 -231 -388 -19 -119 -17 -117 -108 -96 -22 5 -103 16 -180 25 -179 20
-453 63 -482 75 -19 8 -23 17 -23 52 2 155 96 335 203 387 86 41 183 24 188
-35 8 -80 -18 -114 -86 -114 -39 0 -45 -3 -51 -25 -12 -48 1 -129 26 -162 66
-90 283 -98 361 -14 52 55 74 178 48 268 -44 159 -287 221 -480 122 -49 -25
-123 -98 -148 -147 -11 -21 -26 -44 -34 -51 -25 -20 -32 5 -32 114 l0 100
-335 1 c-184 1 -306 -2 -270 -5 36 -4 71 -11 78 -15 17 -11 17 -265 -1 -271
-26 -11 -198 99 -309 197 -116 102 -240 292 -250 383 -3 27 0 30 37 37 22 4
105 7 185 7 79 1 262 5 405 11 143 5 433 15 645 20 212 6 516 15 675 20 160 5
544 17 855 25 311 8 709 19 885 25 1003 31 1305 40 1440 41 102 1 137 4 110 9
-22 4 -319 13 -660 19 -341 6 -638 14 -660 16 -22 3 -215 9 -430 15 -214 5
-525 14 -690 20 -558 19 -1238 40 -1660 50 -764 18 -1130 31 -1139 41 -18 16
64 225 95 245 11 6 42 64 34 64 -2 0 -12 -12 -22 -27z m283 -378 c99 -18 151
-38 159 -65 8 -26 1 -37 -44 -59 -53 -28 -169 -41 -350 -41 -124 0 -161 3
-170 14 -7 9 -11 42 -9 87 3 68 5 74 28 81 35 10 290 -1 386 -17z m-441 -8 c4
-13 5 -50 3 -82 l-3 -60 -37 -3 c-44 -4 -152 22 -185 44 -25 16 -31 55 -10 71
15 13 102 41 142 46 73 10 84 8 90 -16z m2736 -554 c54 -46 62 -79 67 -275 2
-97 2 -188 -2 -202 l-6 -26 -153 0 c-106 0 -157 4 -165 12 -8 8 -12 48 -12
117 1 286 56 401 192 401 36 0 54 -6 79 -27z"/>
<path d="M4446 5771 c5 -6 41 -11 79 -13 l70 -3 0 -955 0 -955 -70 -3 c-38 -2
-74 -7 -80 -13 -5 -5 140 -9 394 -9 265 0 400 3 396 10 -3 6 -28 10 -55 10
-38 0 -52 4 -59 18 -13 25 -14 700 -2 809 24 206 184 365 307 307 69 -33 69
-27 72 -597 2 -380 0 -512 -9 -523 -7 -8 -29 -14 -55 -14 -23 0 -46 -4 -49
-10 -4 -7 130 -10 394 -10 261 0 401 3 401 10 0 6 -33 10 -80 10 -44 0 -81 1
-82 3 -1 1 -4 216 -8 477 -6 470 -6 476 -29 533 -47 114 -136 183 -270 212
-140 29 -292 13 -393 -42 -49 -27 -127 -109 -149 -156 -14 -31 -39 -43 -51
-25 -4 7 -8 221 -8 476 l0 462 -337 0 c-213 0 -333 -4 -327 -9z"/>
<path d="M11646 5770 c5 -5 45 -10 89 -12 l80 -3 0 -394 c0 -286 -3 -395 -11
-398 -7 -2 -27 10 -45 26 -95 87 -281 113 -471 67 -158 -38 -247 -104 -316
-235 -56 -103 -76 -204 -76 -381 -1 -183 15 -267 71 -380 88 -179 230 -260
454 -260 128 0 244 35 307 94 46 41 44 57 -2 24 -33 -23 -59 -32 -99 -36 -156
-13 -190 60 -201 418 -13 395 16 630 84 698 48 48 129 52 205 8 48 -27 70 -56
95 -128 19 -53 20 -83 20 -418 0 -335 -1 -365 -20 -417 -11 -32 -20 -59 -20
-60 0 -2 10 -3 23 -3 20 0 24 -8 37 -77 l15 -78 313 -3 c210 -1 311 1 307 8
-3 5 -34 10 -69 10 l-63 0 -6 368 c-3 202 -6 635 -6 962 -1 327 -1 598 -1 603
0 4 -158 7 -352 7 -223 0 -349 -3 -342 -10z"/>
<path d="M2526 5642 c-2 -4 -9 -129 -15 -277 -6 -149 -14 -281 -16 -295 -3
-14 -1 -32 5 -40 7 -11 15 -2 35 43 14 32 25 61 25 66 0 17 82 187 127 264 90
152 174 208 324 215 84 4 86 4 92 -19 4 -13 7 -407 7 -876 0 -773 -2 -853 -16
-868 -13 -13 -36 -16 -122 -14 -71 1 -107 -2 -110 -10 -3 -8 135 -11 517 -11
316 0 521 4 521 9 0 15 -29 19 -130 18 -53 0 -101 3 -108 7 -9 5 -12 212 -12
881 0 765 2 875 15 882 8 5 50 6 93 2 187 -16 276 -111 414 -443 59 -140 72
-165 83 -154 6 6 -13 568 -21 606 l-4 22 -850 0 c-467 0 -851 -3 -854 -8z"/>
<path d="M9927 5061 c58 -27 80 -74 94 -198 11 -110 8 -848 -5 -875 -5 -11 -3
-17 7 -20 8 -1 30 -23 48 -47 67 -87 168 -121 364 -121 159 0 245 34 300 118
25 38 70 203 62 225 -6 15 -9 7 -33 -97 -14 -60 -26 -87 -50 -112 -42 -46 -88
-47 -130 -3 l-29 30 -6 367 c-5 291 -9 382 -23 442 -32 144 -101 222 -231 263
-76 24 -235 47 -327 47 l-83 0 42 -19z"/>
<path d="M12968 5056 c-209 -62 -318 -198 -321 -401 -2 -108 19 -177 75 -239
63 -72 261 -157 468 -201 228 -49 320 -108 320 -204 0 -80 -58 -145 -155 -173
-63 -19 -269 -16 -340 6 -164 49 -285 159 -331 300 -9 28 -23 58 -30 66 -12
12 -14 -17 -14 -198 0 -117 3 -212 7 -212 4 0 23 18 43 40 51 59 85 62 197 17
48 -20 115 -41 147 -47 84 -14 269 -12 347 4 134 29 251 112 303 214 58 114
60 278 6 388 -63 128 -192 196 -535 279 -170 42 -209 59 -253 110 -27 30 -32
44 -32 85 0 104 99 162 275 163 206 1 362 -90 455 -264 17 -33 34 -59 38 -59
4 0 7 76 7 170 0 93 -3 170 -7 170 -3 0 -20 -17 -36 -37 -27 -33 -35 -38 -74
-38 -23 0 -66 10 -95 23 -148 63 -329 78 -465 38z"/>
<path d="M9729 5066 c-3 -3 -36 -10 -74 -16 -130 -20 -249 -94 -286 -175 -21
-45 -25 -147 -8 -192 28 -75 99 -112 215 -113 168 0 261 91 240 234 -6 39 -11
47 -34 52 -45 9 -57 19 -66 57 -15 60 2 107 49 134 l40 23 -36 0 c-20 0 -38
-2 -40 -4z"/>
<path d="M9686 4399 c-226 -24 -335 -72 -389 -173 -19 -35 -22 -57 -22 -151 0
-60 -3 -115 -8 -122 -4 -7 0 -14 11 -17 10 -4 43 -24 72 -46 52 -39 144 -80
178 -80 9 0 47 -15 84 -34 l66 -33 -1 26 c-2 25 0 26 71 32 97 9 119 15 164
47 39 28 52 50 19 32 -31 -16 -75 -12 -98 10 -32 29 -46 117 -40 240 3 58 11
123 17 145 15 50 76 109 127 123 32 8 22 10 -67 10 -58 -1 -141 -4 -184 -9z"/>
<path d="M8345 4275 c17 -8 41 -14 55 -14 23 0 23 1 5 8 -11 5 -36 11 -55 15
l-35 6 30 -15z"/>
<path d="M9710 3726 c0 -2 24 -16 53 -31 53 -28 249 -143 412 -243 90 -55 286
-187 337 -226 14 -12 57 -43 95 -71 117 -86 233 -185 233 -200 0 -19 22 -18
-286 -15 -160 1 -264 -2 -268 -8 -3 -6 23 -11 65 -14 47 -2 73 -8 79 -18 11
-18 13 -1079 2 -1097 -4 -6 -39 -15 -77 -21 -52 -7 44 -10 368 -11 311 -1 437
2 437 10 0 7 -30 10 -87 9 -49 -1 -94 -2 -101 -1 -10 1 -12 82 -10 414 l3 413
35 69 c27 54 40 70 57 70 32 0 130 -98 154 -156 16 -37 33 -56 73 -81 28 -18
59 -41 69 -52 17 -19 18 -19 31 -1 8 12 34 21 76 26 34 5 79 18 99 30 134 75
134 295 -1 386 -125 83 -354 59 -476 -52 -32 -29 -45 -34 -59 -27 -30 17 -61
56 -65 82 -2 19 -10 26 -33 28 -16 2 -43 16 -60 31 -26 25 -148 120 -225 176
-15 11 -54 40 -87 65 -197 147 -530 359 -745 473 -86 46 -98 51 -98 43z m1612
-853 c26 -23 31 -49 18 -88 -14 -42 -35 -55 -89 -55 -31 0 -41 -4 -46 -20 -10
-31 -36 -24 -87 25 -54 51 -58 65 -25 95 67 64 182 85 229 43z m-318 -49 c20
-19 20 -37 1 -74 -26 -51 -45 -39 -45 30 0 64 12 76 44 44z"/>
<path d="M4690 3680 c-190 -21 -333 -68 -452 -146 -277 -184 -302 -534 -58
-807 19 -22 56 -60 83 -85 73 -70 76 -67 -112 -127 -134 -42 -171 -60 -234
-113 -111 -91 -152 -195 -145 -363 4 -95 8 -115 36 -171 76 -155 203 -239 462
-305 184 -46 516 -66 710 -43 182 23 355 92 489 195 40 31 79 54 87 51 19 -7
101 -121 134 -186 45 -89 60 -154 60 -259 -1 -247 -101 -436 -260 -489 -89
-31 -195 -30 -240 0 -39 27 -55 65 -46 113 10 51 29 65 91 65 39 0 54 4 59 16
12 31 6 136 -10 169 -17 36 -68 74 -123 93 -48 17 -179 15 -233 -4 -167 -56
-223 -260 -105 -382 80 -83 191 -121 377 -129 152 -6 203 3 347 61 118 48 215
116 318 221 155 158 231 319 242 508 13 231 -40 365 -221 567 l-77 85 5 50 c2
28 11 91 20 140 8 50 20 146 26 214 5 68 13 127 16 132 3 5 58 9 123 9 118 0
138 4 122 24 -14 17 -604 10 -598 -7 2 -8 44 -13 140 -15 157 -3 153 0 142
-105 -20 -188 -47 -343 -64 -360 -7 -7 -50 16 -138 75 -214 142 -288 186 -603
351 -91 49 -115 71 -90 87 8 5 47 21 85 36 194 71 344 169 408 267 44 68 57
107 57 177 0 189 -141 321 -395 368 -127 24 -327 34 -435 22z m276 -55 c45
-19 109 -77 131 -120 31 -58 43 -129 43 -255 -1 -191 -25 -273 -103 -351 -41
-41 -125 -82 -152 -75 -37 9 -233 145 -301 208 -42 40 -70 77 -90 120 -27 58
-29 72 -29 184 0 116 1 122 29 165 36 55 69 84 126 112 94 45 254 50 346 12z
m-481 -1150 c45 -34 259 -160 455 -270 294 -164 550 -345 550 -388 0 -40 -146
-150 -265 -200 -121 -51 -178 -61 -355 -61 -131 0 -177 3 -224 18 -203 61
-304 172 -342 377 -20 102 -14 407 9 508 20 88 37 99 96 64 25 -14 60 -36 76
-48z"/>
<path d="M6280 3489 l-35 -6 35 -3 c19 -2 52 -4 73 -6 21 -1 41 -4 43 -7 7 -7
5 -1657 -2 -1668 -3 -5 -32 -9 -64 -9 -32 0 -62 -4 -65 -10 -4 -7 55 -10 169
-10 111 0 176 4 176 10 0 6 -31 10 -74 10 -58 0 -75 3 -80 16 -9 23 -7 1567 2
1581 4 7 13 9 20 4 15 -9 112 -295 267 -786 167 -531 257 -809 265 -818 12
-13 329 -17 337 -4 4 7 15 39 24 72 9 33 31 110 48 170 75 268 115 412 161
585 27 102 56 210 65 240 8 30 38 138 65 240 73 269 74 271 87 282 7 6 20 8
28 4 13 -5 15 -97 15 -776 0 -513 -3 -778 -10 -791 -9 -16 -22 -19 -80 -19
-40 0 -70 -4 -70 -10 0 -7 148 -10 425 -10 264 0 425 4 425 10 0 5 -33 10 -72
12 l-73 3 -8 75 c-10 100 -4 1586 6 1597 5 4 41 11 80 14 40 3 -97 6 -304 7
l-376 2 -31 -107 c-17 -60 -45 -160 -62 -223 -17 -63 -53 -196 -81 -295 -51
-181 -66 -237 -134 -485 -52 -189 -68 -201 -105 -77 -50 163 -134 440 -171
557 -21 69 -70 228 -109 353 -38 126 -70 234 -70 241 0 8 -6 18 -13 24 -14 12
-667 21 -727 11z"/>
<path d="M10203 3190 c-32 -13 -44 -43 -37 -89 6 -36 3 -43 -32 -78 -38 -38
-62 -64 -133 -148 -158 -185 -238 -268 -251 -260 -6 4 -6 14 1 27 6 11 7 24 2
28 -4 4 -55 20 -113 36 -97 27 -118 29 -275 29 -159 0 -176 -2 -260 -29 -191
-61 -351 -182 -429 -326 -30 -55 -49 -110 -38 -110 4 0 31 27 60 59 55 64 179
151 275 194 105 48 244 72 407 72 148 -1 216 -12 337 -55 144 -53 234 -108
336 -208 71 -70 78 -74 72 -47 -21 95 -113 220 -214 289 -41 29 -43 29 -71 13
-36 -21 -40 -21 -40 2 0 17 46 74 154 191 42 45 179 205 213 248 10 13 37 27
63 33 25 6 53 17 62 26 52 47 -20 131 -89 103z"/>
<path d="M9060 2996 c-129 -46 -212 -97 -301 -189 -67 -68 -100 -121 -133
-210 -44 -117 -40 -174 5 -84 34 67 163 186 244 226 108 51 119 58 130 78 33
62 84 132 119 165 49 45 35 48 -64 14z"/>
<path d="M9319 2990 c-47 -25 -149 -118 -149 -136 0 -8 10 -14 26 -14 20 0 44
18 96 72 91 95 94 98 77 98 -8 -1 -30 -10 -50 -20z"/>
<path d="M9525 2993 c-39 -20 -136 -114 -129 -125 11 -18 74 -8 92 14 9 12 39
46 66 75 45 49 47 53 25 53 -13 -1 -37 -8 -54 -17z"/>
<path d="M9661 2908 c-33 -29 -60 -56 -60 -60 -1 -10 67 -30 79 -23 19 12 81
115 75 125 -12 20 -36 9 -94 -42z"/>
<path d="M12313 2945 c-152 -23 -284 -78 -388 -163 -131 -105 -194 -262 -182
-455 11 -179 60 -300 163 -396 135 -127 314 -181 599 -181 290 0 466 86 564
277 21 43 28 79 12 69 -5 -3 -20 -31 -35 -62 -58 -122 -191 -214 -341 -235
-188 -26 -318 28 -376 157 -45 98 -79 413 -48 450 11 13 34 16 149 14 74 -1
255 -2 403 -1 l267 1 0 48 c-1 128 -61 277 -143 348 -54 47 -185 109 -262 124
-99 18 -281 21 -382 5z m213 -24 c63 -29 75 -69 82 -278 4 -131 2 -176 -8
-188 -10 -12 -41 -15 -166 -15 l-153 0 -7 37 c-12 62 4 264 26 334 21 69 46
100 95 117 45 16 86 14 131 -7z"/>
<path d="M9834 2871 c-5 -3 -25 -24 -44 -44 -34 -37 -34 -39 -16 -53 32 -23
61 -17 90 20 14 19 26 41 26 49 0 16 -43 38 -56 28z"/>
<path d="M9995 2710 l-29 -30 39 -32 c22 -17 66 -59 97 -92 32 -34 58 -57 58
-53 0 35 -109 237 -129 237 -4 0 -20 -14 -36 -30z"/>
<path d="M9416 2479 c-12 -62 -6 -195 14 -276 27 -112 78 -210 166 -319 88
-108 108 -120 149 -90 18 13 14 21 -66 152 -47 77 -95 155 -107 175 -12 19
-30 44 -42 54 -46 42 -7 47 66 9 54 -28 94 -69 94 -97 0 -36 107 -210 136
-221 18 -7 86 42 81 58 -2 5 -36 33 -76 61 -41 27 -80 60 -89 73 -13 20 -13
22 5 22 15 0 150 -73 270 -146 12 -8 33 -35 46 -61 20 -41 28 -48 56 -51 66
-7 98 72 49 119 -20 18 -31 20 -76 15 -46 -5 -59 -3 -100 21 -26 16 -59 35
-73 43 -51 29 -83 60 -72 71 13 13 47 0 118 -46 31 -19 60 -35 65 -35 11 0 70
84 70 100 0 18 -74 122 -116 162 -72 70 -306 213 -332 203 -12 -4 -13 -24 -8
-103 3 -53 9 -116 12 -139 8 -55 -6 -56 -93 -8 -62 36 -76 58 -52 82 6 6 13
48 16 93 7 95 -2 110 -68 110 -33 0 -37 -3 -43 -31z"/>
<path d="M9217 2484 c-13 -13 -7 -194 9 -272 20 -99 78 -221 140 -296 54 -65
202 -196 222 -196 24 0 11 21 -51 84 -79 79 -135 162 -176 260 -43 103 -52
160 -50 301 l3 120 -45 3 c-25 2 -48 0 -52 -4z"/>
<path d="M9025 2436 l-40 -12 3 -74 c7 -209 105 -401 267 -522 69 -51 115 -81
115 -73 0 3 -29 36 -64 74 -70 76 -141 205 -174 311 -18 60 -39 187 -45 269
-2 41 -9 43 -62 27z"/>
<path d="M11423 2380 c25 -36 77 -110 114 -165 37 -55 71 -102 74 -105 3 -3
21 -34 41 -70 20 -36 44 -74 53 -85 15 -19 16 -19 4 5 -47 98 -183 309 -261
403 -71 87 -78 92 -25 17z"/>
<path d="M8811 2317 c-80 -67 -141 -155 -141 -203 0 -35 69 -137 133 -196 76
-70 278 -168 348 -168 8 0 -18 33 -57 73 -138 141 -193 258 -210 450 -4 43
-10 80 -14 82 -5 3 -31 -14 -59 -38z"/>
<path d="M11752 1849 c6 -16 12 -28 14 -26 5 5 -13 57 -20 57 -3 0 0 -14 6
-31z"/>
<path d="M11786 1780 c4 -14 13 -38 20 -55 11 -24 13 -25 8 -5 -4 14 -13 39
-20 55 -11 24 -13 25 -8 5z"/>
<path d="M11830 1661 c0 -19 31 -123 36 -119 4 5 -22 117 -30 125 -3 4 -6 1
-6 -6z"/>
<path d="M11874 1505 c6 -24 34 -205 39 -255 3 -27 4 -23 5 15 2 61 -22 217
-38 242 -10 17 -11 17 -6 -2z"/>
<path d="M6645 1155 l0 -235 55 0 55 0 0 235 0 235 -55 0 -55 0 0 -235z"/>
<path d="M6857 1383 c34 -7 71 -48 78 -87 9 -45 -24 -100 -70 -117 l-30 -11
31 -9 c48 -14 76 -51 82 -109 4 -49 3 -52 -37 -90 -47 -45 -39 -50 46 -25 67
20 101 48 109 90 9 49 -15 81 -83 111 -31 14 -53 30 -51 37 3 6 22 20 43 31
49 23 64 42 65 82 0 59 -79 105 -175 102 -22 0 -24 -2 -8 -5z"/>
<path d="M7200 1384 c0 -3 13 -23 28 -43 27 -34 59 -83 132 -199 32 -52 33
-55 27 -138 l-5 -84 62 0 61 0 -3 102 c-4 97 -5 103 -33 131 -16 16 -37 43
-46 61 -9 17 -26 45 -39 61 -12 17 -28 49 -36 73 l-13 42 -67 0 c-38 0 -68 -3
-68 -6z"/>
<path d="M7648 1384 c-9 -8 3 -44 13 -38 5 3 14 14 19 25 9 16 7 19 -8 19 -10
0 -21 -3 -24 -6z"/>
<path d="M8057 1358 c8 -37 10 -231 4 -353 l-4 -80 73 -3 c68 -3 72 -2 59 14
-11 13 -14 58 -14 203 0 102 2 200 5 216 l5 30 -67 3 -68 3 7 -33z"/>
<path d="M8650 1375 c0 -8 12 -20 27 -27 22 -10 49 -56 128 -211 109 -217 106
-214 142 -119 15 41 15 46 1 56 -9 7 -49 78 -88 159 -40 81 -78 147 -84 148
-98 9 -126 7 -126 -6z"/>
<path d="M9141 1381 c-11 -7 -10 -13 5 -35 15 -25 17 -47 11 -227 l-6 -199 54
0 55 0 2 220 c0 121 1 226 2 233 1 14 -102 22 -123 8z"/>
<path d="M9474 1346 c-70 -70 -28 -156 103 -211 149 -61 187 -100 165 -165
-13 -37 -3 -38 31 -4 33 33 41 57 33 99 -9 47 -66 93 -168 134 -122 50 -161
100 -128 162 16 29 2 23 -36 -15z"/>
<path d="M9730 1362 c0 -5 9 -17 20 -27 20 -18 20 -17 20 8 0 20 -5 27 -20 27
-11 0 -20 -4 -20 -8z"/>
<path d="M11923 1140 c0 -36 2 -50 4 -32 2 17 2 47 0 65 -2 17 -4 3 -4 -33z"/>
<path d="M8653 1075 c0 -33 2 -45 4 -27 2 18 2 45 0 60 -2 15 -4 0 -4 -33z"/>
<path d="M11910 1037 c0 -19 -9 -83 -20 -143 -23 -126 -23 -132 -11 -119 20
22 55 295 37 295 -3 0 -6 -15 -6 -33z"/>
<path d="M8456 984 c-16 -20 -43 -42 -60 -50 -31 -14 -31 -14 24 -11 l55 2 5
48 c3 26 6 47 5 47 0 0 -13 -16 -29 -36z"/>
<path d="M9440 972 c0 -43 7 -48 42 -34 14 6 12 12 -13 42 l-29 34 0 -42z"/>
<path d="M8644 956 c-10 -34 -10 -36 12 -36 25 0 30 9 15 26 -5 5 -11 17 -13
27 -2 12 -7 7 -14 -17z"/>
</g>
</svg>
